#N canvas 233 142 1279 812 12;
#X obj 195 103 scope;
#X obj 339 93 scope;
#X obj 476 103 scope;
#X obj 596 210 bng 19 250 50 0 empty empty empty 0 -10 0 12 #fcfcfc #000000 #000000;
#X obj 35 111 scope;
#X obj 33 227 snapshot~;
#X obj 33 76 adc~ 10;
#X obj 596 231 step;
#X obj 579 232 tgl 19 0 empty empty empty 0 -10 0 12 #fcfcfc #000000 #000000 0 1;
#X obj 639 120 scope;
#X obj 773 115 scope;
#X obj 911 121 scope;
#X text 31 45 Microphone;
#X obj 907 82 adc~ 14;
#X obj 33 248 not-zero;
#N canvas 440 478 448 278 (subpatch) 0;
#X array inputs 7 float 1;
#A 0 0 1 1 0 0 0 0;
#X coords 0 2 6 -1 200 140 1 0 0;
#X restore 28 449 graph;
#X obj 33 286 tabwrite inputs;
#X floatatom 33 267 5 0 0 0 - - - 0;
#X msg 93 268 0, f 1;
#X text 195 27 Spotify L;
#X text 321 13 Spotify R;
#X obj 191 62 adc~ 15;
#X obj 336 47 adc~ 16;
#X obj 471 64 adc~ 7;
#X obj 635 84 adc~ 8;
#X obj 769 78 adc~ 13;
#X obj 192 228 snapshot~;
#X obj 192 248 not-zero;
#X obj 192 286 tabwrite inputs;
#X floatatom 192 267 5 0 0 0 - - - 0;
#X msg 252 268 1, f 1;
#X obj 30 386 outlet~;
#X obj 336 228 snapshot~;
#X obj 336 248 not-zero;
#X obj 336 286 tabwrite inputs;
#X floatatom 336 267 5 0 0 0 - - - 0;
#X msg 396 268 2, f 1;
#X obj 472 229 snapshot~;
#X obj 472 249 not-zero;
#X obj 472 287 tabwrite inputs;
#X floatatom 472 268 5 0 0 0 - - - 0;
#X msg 532 269 3, f 1;
#X obj 636 229 snapshot~;
#X obj 636 249 not-zero;
#X obj 636 287 tabwrite inputs;
#X floatatom 636 268 5 0 0 0 - - - 0;
#X msg 696 269 4, f 1;
#X obj 768 230 snapshot~;
#X obj 768 250 not-zero;
#X obj 768 288 tabwrite inputs;
#X floatatom 771 270 5 0 0 0 - - - 0;
#X msg 828 270 5, f 1;
#X obj 910 231 snapshot~;
#X obj 910 251 not-zero;
#X obj 910 289 tabwrite inputs;
#X floatatom 910 270 5 0 0 0 - - - 0;
#X obj 30 351 *~ 1;
#X obj 55 319 inlet;
#X obj 194 389 outlet~;
#X obj 194 352 *~ 1;
#X obj 219 320 inlet;
#X floatatom 74 338 5 0 0 0 - - - 0;
#X floatatom 246 339 5 0 0 0 - - - 0;
#X obj 334 389 outlet~;
#X obj 334 352 *~ 1;
#X obj 359 320 inlet;
#X floatatom 386 339 5 0 0 0 - - - 0;
#X obj 470 390 outlet~;
#X obj 470 353 *~ 1;
#X obj 495 321 inlet;
#X floatatom 522 340 5 0 0 0 - - - 0;
#X obj 634 402 outlet~;
#X obj 635 348 *~ 1;
#X obj 660 316 inlet;
#X floatatom 687 335 5 0 0 0 - - - 0;
#X obj 763 396 outlet~;
#X obj 763 353 *~ 1;
#X obj 788 321 inlet;
#X floatatom 815 340 5 0 0 0 - - - 0;
#X obj 907 394 outlet~;
#X obj 906 354 *~ 1;
#X obj 931 322 inlet;
#X floatatom 958 341 5 0 0 0 - - - 0;
#X msg 970 271 6, f 1;
#X obj 578 188 loadbang;
#X connect 3 0 5 0;
#X connect 3 0 26 0;
#X connect 3 0 32 0;
#X connect 3 0 37 0;
#X connect 3 0 42 0;
#X connect 3 0 47 0;
#X connect 3 0 52 0;
#X connect 5 0 14 0;
#X connect 6 0 4 0;
#X connect 6 0 5 0;
#X connect 6 0 56 0;
#X connect 7 0 3 0;
#X connect 8 0 7 0;
#X connect 13 0 11 0;
#X connect 13 0 52 0;
#X connect 13 0 80 0;
#X connect 14 0 16 0;
#X connect 14 0 18 0;
#X connect 14 0 17 0;
#X connect 18 0 16 1;
#X connect 21 0 0 0;
#X connect 21 0 26 0;
#X connect 21 0 59 0;
#X connect 22 0 1 0;
#X connect 22 0 32 0;
#X connect 22 0 64 0;
#X connect 23 0 2 0;
#X connect 23 0 37 0;
#X connect 23 0 68 0;
#X connect 24 0 9 0;
#X connect 24 0 42 0;
#X connect 24 0 72 0;
#X connect 25 0 10 0;
#X connect 25 0 47 0;
#X connect 25 0 76 0;
#X connect 26 0 27 0;
#X connect 27 0 28 0;
#X connect 27 0 30 0;
#X connect 27 0 29 0;
#X connect 30 0 28 1;
#X connect 32 0 33 0;
#X connect 33 0 34 0;
#X connect 33 0 36 0;
#X connect 33 0 35 0;
#X connect 36 0 34 1;
#X connect 37 0 38 0;
#X connect 38 0 39 0;
#X connect 38 0 41 0;
#X connect 38 0 40 0;
#X connect 41 0 39 1;
#X connect 42 0 43 0;
#X connect 43 0 44 0;
#X connect 43 0 46 0;
#X connect 43 0 45 0;
#X connect 46 0 44 1;
#X connect 47 0 48 0;
#X connect 48 0 49 0;
#X connect 48 0 51 0;
#X connect 48 0 50 0;
#X connect 51 0 49 1;
#X connect 52 0 53 0;
#X connect 53 0 54 0;
#X connect 53 0 83 0;
#X connect 53 0 55 0;
#X connect 56 0 31 0;
#X connect 57 0 56 1;
#X connect 57 0 61 0;
#X connect 59 0 58 0;
#X connect 60 0 59 1;
#X connect 60 0 62 0;
#X connect 64 0 63 0;
#X connect 65 0 64 1;
#X connect 65 0 66 0;
#X connect 68 0 67 0;
#X connect 69 0 68 1;
#X connect 69 0 70 0;
#X connect 72 0 71 0;
#X connect 73 0 72 1;
#X connect 73 0 74 0;
#X connect 76 0 75 0;
#X connect 77 0 76 1;
#X connect 77 0 78 0;
#X connect 80 0 79 0;
#X connect 81 0 80 1;
#X connect 81 0 82 0;
#X connect 83 0 54 1;
#X connect 84 0 8 0;
