#N canvas 1512 28 1383 1080 12;
#X obj 175 102 step, f 10;
#X msg 336 56 360;
#X floatatom 175 125 5 0 0 0 - - - 0;
#X obj 175 155 / 360;
#X floatatom 293 125 8 0 0 0 - - - 0;
#X obj 293 98 PI;
#X obj 257 176 *;
#X obj 252 142 bng 19 250 50 0 empty empty empty 0 -10 0 12 #fcfcfc #000000 #000000;
#X obj 293 148 * 2;
#X floatatom 293 172 5 0 0 0 - - - 0;
#X obj 277 218 sin;
#X obj 385 218 cos;
#X floatatom 187 197 5 0 0 0 - - - 0;
#X obj 336 25 loadbang;
#X obj 54 41 inlet enabled;
#X obj 252 42 inlet step;
#X obj 35 232 outlet degrees;
#X obj 148 232 outlet radians;
#X obj 277 269 outlet sin;
#X obj 384 269 outlet cos;
#X floatatom 288 241 6 0 0 0 - - - 0;
#X floatatom 396 241 6 0 0 0 - - - 0;
#X obj 159 43 inlet time;
#X obj -46 121 print circunference time \$1;
#X connect 0 0 2 0;
#X connect 1 0 0 2;
#X connect 2 0 3 0;
#X connect 2 0 7 0;
#X connect 2 0 16 0;
#X connect 3 0 6 0;
#X connect 4 0 8 0;
#X connect 5 0 4 0;
#X connect 6 0 12 0;
#X connect 6 0 10 0;
#X connect 6 0 11 0;
#X connect 7 0 5 0;
#X connect 8 0 6 1;
#X connect 8 0 9 0;
#X connect 10 0 18 0;
#X connect 10 0 20 0;
#X connect 11 0 19 0;
#X connect 11 0 21 0;
#X connect 12 0 17 0;
#X connect 13 0 1 0;
#X connect 14 0 0 0;
#X connect 15 0 0 3;
#X connect 22 0 0 1;
#X connect 22 0 23 0;
