#N canvas 288 146 1048 795 12;
#X obj 81 37 tgl 19 0 empty empty empty 0 -10 0 12 #fcfcfc #000000 #000000 0 1;
#X obj 110 67 step;
#X obj 184 92 vradio 19 1 0 16 empty empty empty 0 -10 0 12 #ffffff #000000 #000000 0;
#X floatatom 100 392 5 0 0 0 - - - 0;
#X msg 113 449 \; pd dsp 1;
#X obj 290 251 *~, f 4;
#X obj 416 79 vsl 19 162 0 2 0 0 empty empty empty 0 -9 0 12 #fcfcfc #000000 #000000 0 1;
#X obj 387 344 scope;
#X msg 114 500 \; pd dsp 0;
#X obj 297 498 dac~;
#X floatatom 468 251 5 0 0 0 - - - 0;
#X msg 151 38 16, f 4;
#X msg 109 37 50;
#X text 227 587 comment;
#X obj 266 134 adc~;
#X obj 610 161 midiin;
#X floatatom 615 233 5 0 0 0 - - - 0;
#X connect 0 0 1 0;
#X connect 1 0 2 0;
#X connect 2 0 3 0;
#X connect 5 0 7 0;
#X connect 6 0 5 1;
#X connect 6 0 10 0;
#X connect 11 0 1 2;
#X connect 12 0 1 1;
#X connect 14 0 5 0;
#X connect 15 1 16 0;
