#N canvas 37 38 519 916 12;
#X declare -lib Gem;
#N canvas 690 434 543 349 gemwin 0;
#X obj 132 136 gemwin;
#X obj 67 89 outlet;
#X obj 67 10 inlet;
#X obj 67 41 route create;
#X msg 67 70 set destroy;
#X msg 167 68 set create;
#X msg 132 112 create \, 1;
#X msg 198 112 destroy;
#X obj 287 94 loadbang;
#X msg 294 121 reset \, lighting 0;
#X obj 205 24 loadbang;
#X connect 2 0 3 0;
#X connect 3 0 4 0;
#X connect 3 0 6 0;
#X connect 3 1 5 0;
#X connect 3 1 7 0;
#X connect 4 0 1 0;
#X connect 5 0 1 0;
#X connect 6 0 0 0;
#X connect 7 0 0 0;
#X connect 8 0 9 0;
#X connect 9 0 0 0;
#X connect 10 0 5 0;
#X restore 597 47 pd gemwin;
#X msg 703 67 create;
#X obj 555 78 declare -lib Gem;
#X obj 838 543 tgl 15 0 empty empty empty 17 7 0 10 #fcfcfc #000000 #000000 0 1;
#X obj 838 567 gemhead;
#X obj 838 605 part_head;
#X obj 840 774 part_render;
#X obj 840 810 circle;
#X obj 762 695 loadbang;
#X obj 838 637 part_size 2;
#X floatatom 988 643 5 0 0 0 - - - 0;
#X obj 1002 607 snapshot~;
#X obj 1198 338 tgl 15 0 empty empty empty 17 7 0 10 #fcfcfc #000000 #000000 0 1;
#X obj 1198 362 gemhead;
#X obj 1198 400 part_head;
#X obj 1195 581 part_render;
#X obj 1325 468 loadbang;
#X obj 1129 403 part_size 2;
#X obj 1129 437 part_source 5;
#X floatatom 1120 660 5 0 0 0 - - - 0;
#X obj 1058 643 snapshot~;
#X obj 1075 531 bng 19 250 50 0 empty empty empty 0 -10 0 12 #fcfcfc #000000 #000000;
#X obj 1074 500 step, f 9;
#X obj 1055 446 tgl 19 0 empty empty empty 0 -10 0 12 #fcfcfc #000000 #000000 0 1;
#X obj 1129 514 part_targetcolor;
#X obj 1214 636 circle;
#X msg 1236 478 1 0 0;
#X obj 835 748 part_targetcolor;
#X msg 899 728 0 1 0;
#X msg 758 742 draw line;
#X msg 1321 515 draw line;
#X text 566 20 Create/Destroy window:;
#X obj 838 671 part_source 5;
#X obj 838 706 part_killold 3;
#X obj 1129 472 part_killold 3;
#X msg 1120 389 speed 3;
#X floatatom 1089 538 5 0 0 0 - - - 0;
#X obj 1170 682 abs;
#X obj 1022 701 abs;
#X floatatom 1020 724 5 0 0 0 - - - 0;
#X floatatom 1170 706 5 0 0 0 - - - 0;
#X text 831 516 Agudo;
#X obj 1138 748 hsl 162 19 0 10 0 0 empty empty empty -2 -10 0 12 #fcfcfc #000000 #000000 0 1;
#X floatatom 1141 770 5 0 0 0 - - - 0;
#X floatatom 1096 771 5 0 0 0 - - - 0;
#X obj 1110 748 *;
#X msg 915 561 speed 1;
#X obj 970 702 * 3;
#X text 970 753 Voz;
#X msg 1126 445 1024;
#X obj 996 542 adc~ 15;
#X obj 1090 576 adc~ 16;
#X msg 1085 445 100;
#X text 858 29 enable/disable rendering;
#X msg 921 419 gemList;
#X msg 877 51 1;
#X msg 913 51 0;
#X obj 920 454 print ENABLE;
#X msg 809 48 bang;
#X msg 948 241 -1 0 0;
#X msg 920 241 2;
#X obj 909 299 rotate;
#X msg 1074 282 0 0 1;
#X obj 1171 75 step, f 14;
#X obj 1171 55 tgl 19 0 empty empty empty 0 -10 0 12 #fcfcfc #000000 #000000 0 1;
#X floatatom 1171 94 5 0 0 0 - - - 0;
#X msg 1215 56 360;
#X msg 1241 57 22.5;
#X msg 1190 55 100;
#X obj 921 394 triangle 0.5;
#X obj 926 181 gemhead 105;
#X text 958 47 set rendering order;
#X msg 960 69 set 45;
#X msg 1023 69 set 105;
#X obj 925 209 rotate;
#X obj 872 261 translate 0 0 0;
#X obj 1207 93 bng 19 250 50 0 empty empty empty 0 -10 0 12 #fcfcfc #000000 #000000;
#N canvas 0 22 450 278 (subpatch) 0;
#X array soundData 2.24813e+07 float 4;
#X coords 0 1 2.24813e+07 -1 200 140 1 0 0;
#X restore 284 35 graph;
#X obj 140 38 soundfiler;
#X floatatom 139 57 12 0 0 0 - - - 0;
#X obj 217 191 scope;
#X floatatom 70 116 12 0 0 0 - - - 0;
#X obj 70 134 phasor~;
#X obj 175 153 *~;
#X msg 23 114 0;
#X obj 64 172 tabread4~ soundData;
#X obj 15 210 dac~ 3;
#X obj 96 210 dac~ 4;
#X msg 33 12 read -resize ./llorona.wav soundData;
#X obj 62 191 *~ 1;
#X listbox 33 57 15 0 0 0 - - - 0;
#X floatatom 32 74 5 0 0 0 - - - 0;
#X obj 68 95 expr $f1/$f2;
#X connect 0 0 1 0;
#X connect 1 0 0 0;
#X connect 3 0 4 0;
#X connect 4 0 5 0;
#X connect 5 0 9 0;
#X connect 6 0 7 0;
#X connect 8 0 29 0;
#X connect 9 0 32 0;
#X connect 10 0 38 0;
#X connect 11 0 10 0;
#X connect 12 0 13 0;
#X connect 13 0 14 0;
#X connect 14 0 17 0;
#X connect 15 0 25 0;
#X connect 16 0 30 0;
#X connect 17 0 18 0;
#X connect 18 0 34 0;
#X connect 19 0 37 0;
#X connect 20 0 19 0;
#X connect 21 0 20 0;
#X connect 21 0 11 0;
#X connect 22 0 21 0;
#X connect 22 0 36 0;
#X connect 23 0 22 0;
#X connect 24 0 15 0;
#X connect 24 0 19 0;
#X connect 26 0 24 1;
#X connect 27 0 6 0;
#X connect 28 0 27 1;
#X connect 29 0 7 0;
#X connect 30 0 25 0;
#X connect 32 0 33 0;
#X connect 33 0 27 0;
#X connect 34 0 24 0;
#X connect 35 0 14 0;
#X connect 37 0 40 0;
#X connect 37 0 45 0;
#X connect 38 0 39 0;
#X connect 38 0 47 0;
#X connect 42 0 43 0;
#X connect 42 0 45 1;
#X connect 45 0 17 1;
#X connect 45 0 44 0;
#X connect 46 0 5 0;
#X connect 47 0 9 1;
#X connect 49 0 22 2;
#X connect 50 0 11 0;
#X connect 51 0 20 0;
#X connect 52 0 22 1;
#X connect 54 0 57 0;
#X connect 55 0 70 0;
#X connect 56 0 70 0;
#X connect 58 0 70 0;
#X connect 59 0 75 2;
#X connect 60 0 75 1;
#X connect 61 0 69 0;
#X connect 62 0 61 2;
#X connect 62 0 74 2;
#X connect 63 0 65 0;
#X connect 63 0 76 0;
#X connect 64 0 63 0;
#X connect 65 0 61 1;
#X connect 65 0 74 1;
#X connect 66 0 63 2;
#X connect 67 0 63 3;
#X connect 68 0 63 1;
#X connect 69 0 54 0;
#X connect 70 0 74 0;
#X connect 72 0 70 0;
#X connect 73 0 70 0;
#X connect 74 0 75 0;
#X connect 75 0 61 0;
#X connect 78 0 79 0;
#X connect 78 1 90 0;
#X connect 79 0 83 1;
#X connect 79 0 92 1;
#X connect 82 0 83 0;
#X connect 83 0 85 0;
#X connect 84 0 82 0;
#X connect 85 0 80 0;
#X connect 85 0 89 0;
#X connect 88 0 78 0;
#X connect 89 0 86 0;
#X connect 89 0 87 0;
#X connect 90 0 91 0;
#X connect 91 0 92 0;
#X connect 92 0 81 0;
#X connect 92 0 82 0;
