#N canvas 50 140 603 199 12;
#X obj 39 52 scope;
#X obj 453 51 scope;
#X obj 178 32 sampler-llorona;
#X msg 290 16 pause;
#X obj 155 102 noise-ofuscator;
#X obj 267 53 tgl 19 0 empty empty empty 0 -10 0 12 #fcfcfc #000000 #000000 0 1;
#X obj 281 103 noise-ofuscator;
#X obj 289 51 hsl 162 19 0 0.1 0 0 empty empty empty -2 -10 0 12 #fcfcfc #000000 #000000 0 1;
#X obj 254 148 dac~;
#X connect 2 0 0 0;
#X connect 2 0 4 1;
#X connect 2 1 1 0;
#X connect 2 1 6 1;
#X connect 2 2 3 0;
#X connect 3 0 2 0;
#X connect 4 0 8 0;
#X connect 5 0 6 0;
#X connect 5 0 4 0;
#X connect 6 0 8 1;
#X connect 7 0 6 2;
#X connect 7 0 4 2;
