#N canvas 118 425 743 239 12;
#X obj 432 86 scope;
#X obj 198 85 scope;
#X obj 97 85 scope;
#X obj 532 86 scope;
#X obj 298 66 lop~;
#X obj 395 67 lop~;
#X obj 330 67 hip~;
#X obj 363 67 hip~;
#X obj 298 86 dac~ 3;
#X obj 384 86 dac~ 4;
#X obj 52 87 dac~ 5;
#X obj 632 87 dac~ 6;
#X text 294 29 Music Player;
#X obj 297 47 blackhole-map;
#X msg 393 48 100, f 4;
#X obj 395 30 loadbang;
#X connect 4 0 2 0;
#X connect 4 0 10 0;
#X connect 5 0 3 0;
#X connect 5 0 11 0;
#X connect 6 0 1 0;
#X connect 6 0 8 0;
#X connect 7 0 0 0;
#X connect 7 0 9 0;
#X connect 13 1 6 0;
#X connect 13 1 4 0;
#X connect 13 2 7 0;
#X connect 13 2 5 0;
#X connect 14 0 4 1;
#X connect 14 0 6 1;
#X connect 14 0 5 1;
#X connect 14 0 7 1;
#X connect 15 0 14 0;
