#N canvas 1739 207 1186 643 12;
#X obj 128 84 adc~ 13;
#X obj 256 85 adc~ 14;
#X obj 155 236 scope;
#X obj 399 191 scope;
#X obj 207 26 vsl 19 162 0 1 0 0 empty empty empty 0 -9 0 12 #fcfcfc #000000 #000000 0 1;
#X text 215 173 0;
#X text 215 24 1;
#X floatatom 207 196 5 0 0 0 - - - 0;
#X obj 122 146 *~;
#X obj 288 140 *~;
#X obj 747 347 scope;
#X obj 673 280 *~ 0.1;
#X obj 663 149 tgl 19 0 empty empty empty 0 -10 0 12 #fcfcfc #000000 #000000 0 1;
#X obj 638 429 dac~ 5 6;
#X obj 671 195 osc~ 1000;
#X obj 77 235 dac~ 5;
#X obj 298 193 dac~ 6;
#X connect 0 0 8 0;
#X connect 1 0 9 0;
#X connect 4 0 7 0;
#X connect 4 0 8 1;
#X connect 4 0 9 1;
#X connect 8 0 2 0;
#X connect 8 0 15 0;
#X connect 9 0 3 0;
#X connect 9 0 16 0;
#X connect 11 0 10 0;
#X connect 11 0 13 0;
#X connect 11 0 13 1;
#X connect 12 0 14 0;
#X connect 14 0 11 0;
