#N canvas 103 101 450 300 12;
#X floatatom 38 51 5 0 0 0 - - - 0;
#X obj 36 20 ctlin;
#X obj 33 145 spigot;
#X obj 36 70 > 0;
#X obj 109 144 int;
#X msg 98 91 1;
#X msg 149 90 0;
#X floatatom 128 177 5 0 0 0 - - - 0;
#X obj 81 69 bng 19 250 50 0 empty empty empty 0 -10 0 12 #fcfcfc #000000 #000000;
#X obj 128 68 bng 19 250 50 0 empty empty empty 0 -10 0 12 #fcfcfc #000000 #000000;
#X obj 80 48 sel 115;
#X floatatom 120 115 5 0 0 0 - - - 0;
#X obj 34 177 outlet;
#X connect 0 0 3 0;
#X connect 1 0 0 0;
#X connect 1 1 10 0;
#X connect 2 0 12 0;
#X connect 3 0 2 0;
#X connect 4 0 7 0;
#X connect 5 0 11 0;
#X connect 6 0 11 0;
#X connect 7 0 2 1;
#X connect 8 0 4 0;
#X connect 8 0 5 0;
#X connect 9 0 6 0;
#X connect 9 0 4 0;
#X connect 10 0 8 0;
#X connect 10 1 9 0;
#X connect 11 0 4 1;
