#N canvas 731 236 343 262 12;
#X obj 145 45 ctlin;
#X msg 221 84 1;
#X msg 260 85 0;
#X floatatom 220 111 5 0 0 0 - - - 0;
#X obj 148 79 spigot;
#X obj 93 128 int;
#X floatatom 100 165 5 0 0 0 - - - 0;
#X floatatom 148 103 5 0 0 0 - - - 0;
#X obj 67 69 r enter;
#X obj 74 127 bng 19 250 50 0 empty empty empty 0 -10 0 12 #fcfcfc #000000 #000000;
#X obj 220 61 sel;
#X obj 245 8 inlet;
#X msg 246 36 \$1;
#X obj 155 138 outlet value;
#X obj 102 201 outlet bang;
#X connect 0 0 4 0;
#X connect 0 1 10 0;
#X connect 1 0 3 0;
#X connect 2 0 3 0;
#X connect 3 0 4 1;
#X connect 4 0 7 0;
#X connect 5 0 6 0;
#X connect 6 0 14 0;
#X connect 7 0 5 1;
#X connect 7 0 13 0;
#X connect 8 0 9 0;
#X connect 9 0 5 0;
#X connect 10 0 1 0;
#X connect 10 1 2 0;
#X connect 11 0 12 0;
#X connect 12 0 10 1;
