#N canvas 116 366 473 441 12;
#X obj 94 136 noise~;
#X obj 19 190 scope;
#X obj 244 71 inlet~ signal;
#X obj 113 46 inlet enabled;
#X obj 229 300 outlet~ offuscated signal;
#X obj 123 302 scope;
#X obj 337 90 scope;
#X obj 229 259 +~;
#X floatatom 180 84 5 0 0 0 - - - 0;
#X obj 306 219 inlet volume, f 18;
#X floatatom 286 252 5 0 0 0 - - - 0;
#X floatatom 193 177 5 0 0 0 - - - 0;
#X obj 94 89 step;
#X obj 149 107 bng 19 250 50 0 empty empty empty 0 -10 0 12 #fcfcfc #000000 #000000;
#X text 140 24 [0]Enable;
#X text 284 52 [1]Signal;
#X text 326 201 [2]Noise volume;
#X obj 182 123 *;
#X obj 124 172 *~ 0.15;
#X obj 28 21 loadbang;
#X msg 26 141 0;
#X connect 0 0 18 0;
#X connect 2 0 6 0;
#X connect 2 0 7 1;
#X connect 3 0 12 0;
#X connect 3 0 8 0;
#X connect 7 0 4 0;
#X connect 7 0 5 0;
#X connect 8 0 17 0;
#X connect 9 0 10 0;
#X connect 10 0 17 1;
#X connect 12 0 0 0;
#X connect 12 0 13 0;
#X connect 13 0 17 0;
#X connect 17 0 11 0;
#X connect 17 0 18 1;
#X connect 18 0 1 0;
#X connect 18 0 7 0;
#X connect 19 0 20 0;
#X connect 20 0 18 1;
