#N canvas 86 65 1379 871 12;
#X obj 81 142 tgl 19 0 empty empty empty 0 -10 0 12 #fcfcfc #000000 #000000 0 1;
#X obj 132 107 step, f 9;
#X floatatom 175 160 5 0 0 0 - - - 0;
#X floatatom 132 241 5 0 0 0 - - - 0;
#X msg 41 308 0;
#N canvas 498 533 450 278 (subpatch) 0;
#X array sounds-p2 8 float 5;
#A 0 41.4284 51.4284 68.5713 64.2856 57.1427 49.9998 39.9998 35.7141;
#X coords 0 200 7 0 200 140 1 0 0;
#X restore 275 21 graph;
#X obj 212 557 scope;
#X msg 93 86 333;
#X msg 132 86 666;
#X msg 54 86 166;
#X obj 175 180 s engine;
#X floatatom 410 249 5 0 0 0 - - - 0;
#X obj 409 317 sel 0;
#X obj 132 209 tabread sounds-p2;
#X obj 77 384 scope;
#X obj 131 296 line 1;
#X floatatom 132 314 5 0 0 0 - - - 0;
#X msg 132 266 \$1 200;
#X obj 463 288 % 2;
#X obj 361 358 bng 19 250 50 0 empty empty empty 0 -10 0 12 #fcfcfc #000000 #000000;
#X obj 456 358 bng 19 250 50 0 empty empty empty 0 -10 0 12 #fcfcfc #000000 #000000;
#X msg 409 292 1;
#X obj 640 704 dac~ 3 4;
#X msg 492 237 2;
#X msg 224 121 1;
#X obj 402 221 step, f 9;
#X obj 343 227 tgl 19 0 empty empty empty 0 -10 0 12 #fcfcfc #000000 #000000 0 1;
#X msg 413 181 166;
#X msg 493 171 16;
#X msg 513 192 1;
#X obj 601 210 scope;
#X obj 821 153 line;
#N canvas 411 449 450 278 (subpatch) 0;
#X array freqs2 32 float 5;
#A 0 457.144 385.718 314.292 285.722 -85.7084 14.2945 100.011 142.87 257.159 271.445 400.02 500.023 600.026 671.457 757.173 814.318 600.026 442.878 228.596 200.023 142.879 85.7344 14.3037 -57.127 -85.6992 -71.4131 28.5898 200.023 571.463 685.752 842.899 842.899;
#X coords 0 -1000 31 1000 200 140 1 0 0;
#X restore 772 228 graph;
#X floatatom 702 103 5 0 0 0 - - - 0;
#X obj 974 173 tgl 19 0 empty empty empty 0 -10 0 12 #ff8300 #000000 #000000 0 1;
#X obj 800 172 expr if($f2 > 0 \, $f1 \, 0);
#X obj 699 85 tabread freqs2;
#X obj 802 62 tgl 19 0 empty empty empty 0 -10 0 12 #faff00 #000000 #000000 0 1;
#X obj 821 64 step, f 9;
#X floatatom 880 83 5 0 0 0 - - - 0;
#X msg 894 27 32;
#X obj 701 143 osc~;
#X floatatom 834 197 5 0 0 0 - - - 0;
#X msg 822 117 1 \, 0 128;
#X obj 702 123 * 1;
#X obj 703 191 *~;
#X msg 917 59 1;
#X msg 810 12 480;
#X obj 705 227 s~ sig-2;
#X obj 594 518 r~ sig-2;
#X obj 658 615 +~;
#X obj 471 683 scope;
#X obj 675 665 *~ 0.1;
#X obj 540 476 vsl 19 162 0 100 0 0 empty empty empty 0 -9 0 12 #fcfcfc #000000 #000000 0 1;
#X obj 540 646 * 0.01;
#X msg 448 180 333;
#X obj 200 346 *~ 1;
#X obj 287 538 dac~ 5 6;
#X msg 371 180 480;
#X obj 1101 553 phasor~ 100;
#X msg 878 11 166;
#X obj 232 431 *~ 0.1;
#X obj 425 379 vsl 19 162 0 100 0 0 empty empty empty 0 -9 0 12 #fcfcfc #000000 #000000 0 1;
#X obj 425 549 * 0.01;
#X msg 844 13 333;
#X msg 766 12 666;
#X msg 335 194 86;
#X msg 15 87 86;
#X msg 76 48 480;
#X msg 361 333 1, f 4;
#X msg 217 61 8;
#X msg 161 42 4;
#X msg 503 270 3;
#X obj 76 327 osc~;
#X obj 123 547 s~ sig-1;
#X obj 783 462 r~ sig-1;
#X obj 693 544 noise~;
#X obj 783 526 snapshot~;
#X floatatom 783 560 5 0 0 0 - - - 0;
#X obj 714 593 *~;
#X obj 708 468 r engine;
#X obj 766 624 scope;
#X obj 901 481 scope;
#X floatatom 679 493 5 0 0 0 - - - 0;
#X obj 735 506 bng 19 250 50 0 empty empty empty 0 -10 0 12 #fcfcfc #000000 #000000;
#X obj 783 498 ftom~;
#X obj 664 516 tgl 19 0 empty empty empty 0 -10 0 12 #fcfcfc #000000 #000000 0 1;
#X msg 457 333 0;
#X connect 0 0 1 0;
#X connect 0 0 73 0;
#X connect 1 0 2 0;
#X connect 1 0 10 0;
#X connect 1 0 13 0;
#X connect 3 0 17 0;
#X connect 4 0 73 0;
#X connect 7 0 1 1;
#X connect 8 0 1 1;
#X connect 9 0 1 1;
#X connect 11 0 18 0;
#X connect 12 0 69 0;
#X connect 12 1 87 0;
#X connect 13 0 3 0;
#X connect 15 0 16 0;
#X connect 15 0 73 0;
#X connect 17 0 15 0;
#X connect 18 0 12 0;
#X connect 21 0 12 0;
#X connect 23 0 18 1;
#X connect 24 0 1 3;
#X connect 25 0 11 0;
#X connect 26 0 25 0;
#X connect 27 0 25 1;
#X connect 28 0 25 2;
#X connect 29 0 25 3;
#X connect 31 0 35 0;
#X connect 33 0 44 0;
#X connect 34 0 35 1;
#X connect 35 0 42 0;
#X connect 35 0 45 1;
#X connect 36 0 33 0;
#X connect 37 0 38 0;
#X connect 38 0 39 0;
#X connect 38 0 43 0;
#X connect 38 0 36 0;
#X connect 40 0 38 2;
#X connect 41 0 45 0;
#X connect 43 0 31 0;
#X connect 44 0 41 0;
#X connect 45 0 30 0;
#X connect 45 0 48 0;
#X connect 46 0 38 3;
#X connect 47 0 38 1;
#X connect 49 0 50 0;
#X connect 50 0 52 0;
#X connect 52 0 22 0;
#X connect 52 0 22 1;
#X connect 52 0 51 0;
#X connect 53 0 54 0;
#X connect 54 0 52 1;
#X connect 55 0 25 1;
#X connect 56 0 61 0;
#X connect 58 0 25 1;
#X connect 60 0 38 1;
#X connect 61 0 57 0;
#X connect 61 0 57 1;
#X connect 61 0 6 0;
#X connect 61 0 74 0;
#X connect 62 0 63 0;
#X connect 63 0 61 1;
#X connect 64 0 38 1;
#X connect 65 0 38 1;
#X connect 66 0 25 1;
#X connect 67 0 1 1;
#X connect 68 0 1 1;
#X connect 69 0 19 0;
#X connect 69 0 56 1;
#X connect 70 0 1 2;
#X connect 71 0 1 2;
#X connect 72 0 18 1;
#X connect 73 0 14 0;
#X connect 73 0 56 0;
#X connect 75 0 82 0;
#X connect 75 0 85 0;
#X connect 77 0 78 0;
#X connect 79 0 50 1;
#X connect 79 0 81 0;
#X connect 80 0 83 0;
#X connect 80 0 84 0;
#X connect 84 0 77 0;
#X connect 85 0 77 0;
#X connect 86 0 76 0;
#X connect 87 0 20 0;
#X connect 87 0 56 1;
