#N canvas 0 65 1100 945 12;
#X obj 241 187 hsl 162 19 0 127 0 0 empty empty pitch -2 -10 0 12 -262144 -1 -1 0 1;
#X floatatom 238 211 5 0 0 0 - - - 0;
#X obj 238 234 mtof;
#X floatatom 238 258 5 0 0 0 - - - 0;
#X msg 238 289 \$1 300;
#X obj 240 327 line 3;
#X obj 245 362 osc~;
#X obj 244 404 *~ 0.5;
#X obj 329 442 scope;
#X obj 156 81 step, f 9;
#X obj 149 40 tgl 19 0 empty empty empty 0 -10 0 12 -262144 -1 -1 0 1;
#X floatatom 156 105 5 0 0 0 - - - 0;
#X msg 248 45 100;
#X floatatom 309 345 9 0 0 0 - - - 0;
#X floatatom 335 308 5 0 0 0 - - - 0;
#X obj 327 380 hsl 162 19 0 2 0 0 empty empty empty -2 -10 0 12 -262144 -1 -1 0 1;
#X obj 223 475 dac~ 3 4;
#X floatatom 382 405 5 0 0 0 - - - 0;
#X obj 516 121 midiin;
#X floatatom 516 145 5 0 0 0 - - - 0;
#X obj 652 116 scope;
#X obj 768 72 adc~ 13;
#X obj 827 73 adc~ 14;
#X obj 848 118 scope;
#X msg 170 338 0;
#X obj 773 287 dac~;
#X connect 0 0 1 0;
#X connect 1 0 2 0;
#X connect 2 0 3 0;
#X connect 3 0 4 0;
#X connect 4 0 5 0;
#X connect 4 0 14 0;
#X connect 5 0 6 0;
#X connect 5 0 13 0;
#X connect 6 0 7 0;
#X connect 7 0 8 0;
#X connect 7 0 16 0;
#X connect 7 0 16 1;
#X connect 9 0 11 0;
#X connect 10 0 9 0;
#X connect 12 0 9 1;
#X connect 15 0 7 1;
#X connect 15 0 17 0;
#X connect 18 0 19 0;
#X connect 21 0 20 0;
#X connect 21 0 25 0;
#X connect 22 0 23 0;
#X connect 22 0 25 1;
#X connect 24 0 6 0;
