#N canvas 646 153 840 730 12;
#X obj 214 266 soundfiler;
#X floatatom 214 287 12 0 0 0 - - - 0;
#X obj 297 491 scope;
#X floatatom 217 351 12 0 0 0 - - - 0;
#X obj 214 398 phasor~;
#X obj 198 431 *~;
#X msg 172 382 0;
#X listbox 306 286 15 0 0 0 - - - 0;
#X floatatom 305 304 5 0 0 0 - - - 0;
#X obj 169 616 outlet~;
#X obj 279 619 outlet~;
#X obj 214 332 expr $f2/$f1;
#X obj 163 655 dac~ 3 4;
#X obj 134 611 *~;
#X obj 135 99 route pause;
#X msg 64 128 set play;
#X msg 253 125 set pause;
#X msg 216 165 play, f 5;
#X msg 132 166 pause;
#X obj 256 166 bng 19 250 50 0 empty empty empty 0 -10 0 12 #fcfcfc #000000 #000000;
#X obj 172 166 bng 19 250 50 0 empty empty empty 0 -10 0 12 #fcfcfc #000000 #000000;
#X obj 133 57 inlet;
#X obj 410 665 outlet;
#X obj 52 165 send play;
#X obj 288 166 send pause;
#X obj 368 607 receive play;
#X obj 481 607 receive pause;
#X msg 60 26 play;
#X msg 102 26 pause;
#X obj 24 593 tgl 19 0 empty empty empty 0 -10 0 12 #fcfcfc #000000 #000000 0 1;
#X obj 18 93 bng 19 250 50 0 empty empty empty 0 -10 0 12 #fcfcfc #000000 #000000;
#N canvas 0 22 450 278 (subpatch) 0;
#X array bufferLeft 2.24813e+07 float 2;
#X coords 0 1 2.24813e+07 -1 200 140 1;
#X restore 600 108 graph;
#N canvas 0 22 450 278 (subpatch) 0;
#X array bufferRight 2.24813e+07 float 2;
#X coords 0 1 2.24813e+07 -1 200 140 1 0 0;
#X restore 597 275 graph;
#X obj 135 458 tabread4~ bufferLeft;
#X obj 284 457 tabread4~ bufferRight;
#X obj 246 609 *~;
#X obj 34 478 scope;
#X msg 213 209 read -resize ./llorona.wav bufferLeft bufferRight;
#X text 121 680 my local setup;
#X msg 40 114 0;
#X obj 884 155 readsf~ 2;
#X obj 890 392 scope;
#X msg 927 114 start;
#X msg 999 132 stop;
#X obj 920 299 output~;
#X msg 833 33 open ./pedro-navajas-bongos.wav 44100 44 2 1 b;
#X text 537 507 La Llorona - Chabela Vargas;
#X connect 0 0 1 0;
#X connect 0 1 7 0;
#X connect 1 0 5 1;
#X connect 1 0 11 0;
#X connect 4 0 5 0;
#X connect 5 0 33 0;
#X connect 5 0 34 0;
#X connect 6 0 4 0;
#X connect 7 0 8 0;
#X connect 8 0 11 1;
#X connect 11 0 3 0;
#X connect 11 0 4 0;
#X connect 13 0 12 0;
#X connect 14 0 15 0;
#X connect 14 0 18 0;
#X connect 14 1 16 0;
#X connect 14 1 17 0;
#X connect 15 0 23 0;
#X connect 16 0 24 0;
#X connect 17 0 19 0;
#X connect 18 0 20 0;
#X connect 19 0 37 0;
#X connect 20 0 6 0;
#X connect 21 0 14 0;
#X connect 21 0 39 0;
#X connect 25 0 22 0;
#X connect 26 0 22 0;
#X connect 27 0 14 0;
#X connect 27 0 30 0;
#X connect 28 0 14 0;
#X connect 28 0 30 0;
#X connect 29 0 13 1;
#X connect 29 0 35 1;
#X connect 30 0 29 0;
#X connect 33 0 13 0;
#X connect 33 0 9 0;
#X connect 33 0 36 0;
#X connect 34 0 10 0;
#X connect 34 0 2 0;
#X connect 34 0 35 0;
#X connect 35 0 12 1;
#X connect 37 0 0 0;
#X connect 39 0 29 0;
#X connect 40 0 41 0;
#X connect 40 0 44 0;
#X connect 42 0 40 0;
#X connect 43 0 40 0;
#X connect 45 0 40 0;
