#N canvas 2688 230 799 351 12;
#X obj 147 163 lop~;
#X obj 278 145 lop~;
#X text 167 23 Music Player;
#X obj 146 43 blackhole-map, f 21;
#X msg 207 135 100, f 4;
#X obj 280 89 loadbang;
#X obj 553 83 * 0.01;
#X obj 539 59 hsl 162 19 0 100 0 0 empty empty empty -2 -10 0 12 #fcfcfc #000000 #000000 0 1;
#X floatatom 561 125 5 0 0 0 - - - 0;
#X obj 308 208 *~;
#X obj 178 209 *~;
#X obj 557 145 s lo_volume;
#X obj 198 189 r lo_volume, f 13;
#X obj 542 15 loadbang;
#X floatatom 222 214 5 0 0 0 - - - 0;
#X obj 50 56 s~ right;
#X obj 229 64 s~ left;
#X obj 58 88 r~ right;
#X obj 379 82 r~ left;
#X msg 543 35 100;
#X obj 64 156 dac~ 2;
#X obj 380 148 dac~ 1;
#X obj 27 198 scope;
#X obj 378 226 scope;
#X obj 178 261 dac~ 4;
#X obj 307 246 dac~ 3;
#X obj 60 119 +~ 1;
#X obj 381 113 +~ 1;
#X connect 0 0 10 0;
#X connect 1 0 9 0;
#X connect 3 1 0 0;
#X connect 3 1 15 0;
#X connect 3 2 1 0;
#X connect 3 2 16 0;
#X connect 4 0 0 1;
#X connect 4 0 1 1;
#X connect 5 0 4 0;
#X connect 6 0 8 0;
#X connect 7 0 6 0;
#X connect 8 0 11 0;
#X connect 9 0 23 0;
#X connect 9 0 25 0;
#X connect 10 0 24 0;
#X connect 12 0 10 1;
#X connect 12 0 9 1;
#X connect 12 0 14 0;
#X connect 13 0 19 0;
#X connect 17 0 26 0;
#X connect 18 0 27 0;
#X connect 19 0 7 0;
#X connect 26 0 20 0;
#X connect 26 0 22 0;
#X connect 27 0 21 0;
