#N canvas 428 213 670 599 12;
#X obj 204 303 dac~ 1;
#X obj 292 295 dac~ 2;
#X obj 212 82 adc~ 15 16;
#X text 206 62 TidalCycles;
#X obj 389 145 hsl 162 19 0 100 0 0 empty empty empty -2 -10 0 12 #fcfcfc #000000 #000000 0 1;
#X obj 386 169 * 0.01;
#X obj 386 189 s master;
#X obj 206 274 *~;
#X obj 226 256 r master;
#X obj 291 276 *~;
#X connect 2 0 7 0;
#X connect 2 1 9 0;
#X connect 4 0 5 0;
#X connect 5 0 6 0;
#X connect 7 0 0 0;
#X connect 8 0 7 1;
#X connect 8 0 9 1;
#X connect 9 0 1 0;
