#N canvas 244 219 1235 613 12;
#X floatatom 72 76 5 0 0 0 - - - 0;
#X floatatom 137 79 5 0 0 0 - - - 0;
#X obj 75 163 mtof;
#X obj 76 31 notein 1;
#X obj 138 113 sel 0;
#X msg 138 143 0;
#X obj 138 167 bng 19 250 50 0 empty empty empty 0 -10 0 12 #fcfcfc #000000 #000000;
#X msg 110 260 0;
#X floatatom 198 238 5 0 0 0 - - - 0;
#X obj 89 223 line 3;
#X msg 85 196 \$1 300;
#X obj 303 214 midiin;
#X floatatom 366 261 5 0 0 0 - - - 0;
#X floatatom 303 238 5 0 0 0 - - - 0;
#X obj 207 326 scope;
#X obj 89 289 phasor~;
#X msg 126 343 0.2;
#X obj 86 374 *~ 0.2;
#X connect 0 0 2 0;
#X connect 1 0 4 0;
#X connect 2 0 10 0;
#X connect 3 0 0 0;
#X connect 3 1 1 0;
#X connect 4 0 5 0;
#X connect 5 0 6 0;
#X connect 7 0 15 0;
#X connect 9 0 8 0;
#X connect 9 0 15 0;
#X connect 10 0 9 0;
#X connect 11 0 13 0;
#X connect 11 1 12 0;
#X connect 15 0 14 0;
#X connect 15 0 17 0;
#X connect 16 0 17 1;
