#N canvas 1630 129 894 853 12;
#X floatatom 350 53 5 0 0 0 - - - 0;
#X floatatom 415 56 5 0 0 0 - - - 0;
#X obj 316 107 mtof;
#X obj 416 90 sel 0;
#X msg 420 133 0;
#X obj 309 197 line 3;
#X obj 81 66 midiin;
#X floatatom 144 113 5 0 0 0 - - - 0;
#X floatatom 81 90 5 0 0 0 - - - 0;
#X floatatom 314 226 5 0 0 0 - - - 0;
#X obj 414 243 *;
#X msg 467 134 1;
#X obj 354 8 notein;
#X obj 227 529 scope;
#X obj 350 621 dac~ 1 2;
#X msg 309 156 \$1 100;
#X obj 341 477 *~, f 5;
#N canvas 1934 349 302 271 minilab_volume 0;
#X obj 142 12 ctlin;
#X floatatom 79 59 5 0 0 0 - - - 0;
#X floatatom 142 48 5 0 0 0 - - - 0;
#X floatatom 215 59 5 0 0 0 - - - 0;
#X obj 53 98 / 127;
#X obj 73 223 outlet volume;
#X obj 142 83 sel 75;
#X obj 53 170 spigot;
#X msg 53 134 \$1;
#X obj 142 191 tgl 19 0 empty empty empty 0 -10 0 12 #fcfcfc #000000 #000000 0 1;
#X obj 208 137 bng 19 250 50 0 empty empty empty 0 -10 0 12 #fcfcfc #000000 #000000;
#X msg 208 173 0;
#X obj 142 119 bng 19 250 50 0 empty empty empty 0 -10 0 12 #fcfcfc #000000 #000000;
#X msg 142 155 1;
#X connect 0 0 1 0;
#X connect 0 1 2 0;
#X connect 0 2 3 0;
#X connect 1 0 4 0;
#X connect 2 0 6 0;
#X connect 4 0 8 0;
#X connect 6 0 12 0;
#X connect 6 1 10 0;
#X connect 7 0 5 0;
#X connect 8 0 7 0;
#X connect 9 0 7 1;
#X connect 10 0 11 0;
#X connect 11 0 9 0;
#X connect 12 0 13 0;
#X connect 13 0 9 0;
#X restore 420 296 pd minilab_volume;
#X floatatom 414 267 5 0 0 0 - - - 0;
#X floatatom 431 176 5 0 0 0 - - - 0;
#X msg 460 220 1;
#X obj 425 515 lop~ 100;
#X obj 487 634 dac~ 3 4;
#X obj 547 555 scope;
#X obj 343 330 +~;
#X obj 344 296 osc~;
#X floatatom 393 445 5 0 0 0 - - - 0;
#X floatatom 420 320 5 0 0 0 - - - 0;
#X obj 410 388 * 1;
#X connect 0 0 2 0;
#X connect 1 0 3 0;
#X connect 2 0 15 0;
#X connect 3 0 4 0;
#X connect 3 1 11 0;
#X connect 4 0 19 0;
#X connect 5 0 9 0;
#X connect 6 0 8 0;
#X connect 6 1 7 0;
#X connect 9 0 10 0;
#X connect 10 0 18 0;
#X connect 10 0 25 0;
#X connect 11 0 19 0;
#X connect 12 0 0 0;
#X connect 12 1 1 0;
#X connect 15 0 5 0;
#X connect 16 0 14 0;
#X connect 16 0 14 1;
#X connect 16 0 13 0;
#X connect 16 0 21 0;
#X connect 17 0 27 0;
#X connect 19 0 10 1;
#X connect 20 0 10 1;
#X connect 21 0 22 0;
#X connect 21 0 22 1;
#X connect 21 0 23 0;
#X connect 24 0 16 0;
#X connect 25 0 24 0;
#X connect 26 0 16 1;
#X connect 27 0 28 0;
#X connect 28 0 26 0;
