#N canvas 1976 195 450 300 12;
#X obj 299 125 scope;
#X obj 108 110 scope;
#X obj 20 136 dac~ 3;
#X obj 227 139 dac~ 4;
#X obj 65 49 adc~ 15;
#X obj 221 55 adc~ 16;
#X connect 4 0 1 0;
#X connect 4 0 2 0;
#X connect 5 0 0 0;
#X connect 5 0 3 0;
