#N canvas 212 239 1140 734 12;
#X obj 139 152 +, f 2;
#X obj 241 153 % 8;
#X msg 138 111 1;
#X obj 288 18 tgl 19 0 empty empty empty 0 -10 0 12 #fcfcfc #000000 #000000 0 1;
#N canvas 0 22 450 278 (subpatch) 0;
#X array pitch 8 float 3;
#A 0 102.507 59.8714 8.16428 100.693 111.579 19.05 26.3071 92.5286;
#X coords 0 127 8 0 200 140 1 0 0;
#X restore 854 33 graph;
#X obj 139 242 tabread pitch;
#X floatatom 132 188 5 0 0 0 - - - 0;
#X floatatom 148 285 5 0 0 0 - - - 0;
#X obj 149 332 int;
#X floatatom 149 372 5 0 0 0 - - - 0;
#X obj 145 409 mtof;
#X floatatom 147 452 11 0 0 0 - - - 0;
#X obj 131 501 phasor~;
#X obj 404 644 dac~ 1 2;
#X obj 386 454 line~;
#X obj 346 526 *~, f 2;
#X obj 244 614 scope;
#N canvas 682 467 450 278 (subpatch) 0;
#X array decay 10 float 3;
#A 0 36.4286 45 25.7148 143.571 32.1429 27.8571 207.857 36.4286 79.2857 45;
#X coords 0 300 10 0 200 140 1 0 0;
#X restore 845 203 graph;
#X obj 433 151 +, f 2;
#X msg 432 110 1;
#X floatatom 426 187 5 0 0 0 - - - 0;
#X msg 406 359 1 \, 0 \$1;
#X floatatom 449 326 5 0 0 0 - - - 0;
#X obj 277 61 metro 80;
#X obj 647 597 hip~;
#X obj 646 565 lop~;
#X obj 176 555 bob~;
#X obj 647 491 bp~, f 4;
#X obj 645 529 vcf~;
#N canvas 682 467 450 278 (subpatch) 0;
#X array cutoff 5 float 3;
#A 0 1642.86 2785.71 2571.43 3785.71 3785.71;
#X coords 0 10000 5 0 200 140 1 0 0;
#X restore 852 396 graph;
#X obj 333 273 +, f 2;
#X msg 332 232 1;
#X floatatom 326 309 5 0 0 0 - - - 0;
#X obj 422 239 tabread decay;
#X obj 535 152 % 8;
#X obj 233 352 tabread~ cutoff;
#X obj 435 274 % 5;
#X obj 252 474 sig~ 3;
#X obj 430 564 *~ 0.3;
#X obj 522 51 key;
#X obj 520 93 print;
#X connect 0 0 1 0;
#X connect 0 0 6 0;
#X connect 1 0 0 1;
#X connect 2 0 0 0;
#X connect 3 0 23 0;
#X connect 5 0 7 0;
#X connect 6 0 5 0;
#X connect 7 0 8 0;
#X connect 8 0 9 0;
#X connect 9 0 10 0;
#X connect 10 0 11 0;
#X connect 11 0 12 0;
#X connect 12 0 26 0;
#X connect 14 0 15 1;
#X connect 15 0 16 0;
#X connect 15 0 38 0;
#X connect 18 0 20 0;
#X connect 18 0 34 0;
#X connect 19 0 18 0;
#X connect 20 0 33 0;
#X connect 21 0 14 0;
#X connect 22 0 21 0;
#X connect 23 0 2 0;
#X connect 23 0 21 0;
#X connect 23 0 19 0;
#X connect 26 0 15 0;
#X connect 30 0 32 0;
#X connect 30 0 36 0;
#X connect 31 0 30 0;
#X connect 32 0 35 0;
#X connect 33 0 22 0;
#X connect 34 0 18 1;
#X connect 35 0 26 1;
#X connect 36 0 30 1;
#X connect 37 0 26 2;
#X connect 38 0 13 0;
#X connect 38 0 13 1;
