#N canvas 1972 262 883 815 12;
#X text 163 106 object [process/input] (cmd 1);
#X text 161 75 message [input] (cmd 2);
#X floatatom 126 230 5 0 0 0 - - - 0;
#X text 168 234 number box [output] (cmd 3);
#X obj 125 109 + 3;
#X obj 126 201 * 45;
#X obj 123 141 send cal;
#X obj 124 172 receive cal;
#X msg 123 75 3;
#X obj 78 309 print hello world;
#X obj 77 462 vsl 19 162 0 127 0 0 empty empty empty 0 -9 0 12 #fcfcfc #000000 #000000 0 1;
#X floatatom 169 522 5 0 0 0 - - - 0;
#X obj 252 585 vsl 19 162 0 127 0 0 empty empty empty 0 -9 0 12 #fcfcfc #000000 #000000 0 1;
#X obj 46 686 hsl 162 19 0 127 0 0 empty empty empty -2 -10 0 12 #fcfcfc #000000 #000000 0 1;
#X obj 368 346 hradio 19 1 0 8 empty empty empty 0 -10 0 12 #fcfcfc #000000 #000000 0;
#X floatatom 398 398 5 0 0 0 - - - 0;
#X obj 306 428 tgl 19 0 empty empty empty 0 -10 0 12 #fcfcfc #000000 #000000 0 1;
#X obj 124 21 bng 19 250 50 0 empty empty empty 0 -10 0 12 #fcfcfc #000000 #000000;
#X obj 518 177 bng 19 250 50 0 empty empty empty 0 -10 0 12 #fcfcfc #000000 #000000;
#X obj 436 94 tgl 19 0 empty empty empty 0 -10 0 12 #fcfcfc #000000 #000000 0 1;
#X obj 545 260 +;
#X msg 543 217 1, f 2;
#X floatatom 585 233 5 0 0 0 - - - 0;
#X obj 593 291 % 16;
#X obj 592 360 expr $f1 + $f2 + $f3;
#X obj 442 137 metro 100;
#N canvas 93 436 450 300 step 1;
#X obj 57 47 inlet;
#X obj 177 88 inlet, f 10;
#X obj 124 160 metro 100;
#X obj 111 230 +, f 4;
#X msg 84 200 1, f 7;
#X obj 196 210 % 16;
#X obj 122 279 outlet;
#X connect 0 0 2 0;
#X connect 1 0 2 1;
#X connect 2 0 4 0;
#X connect 3 0 5 0;
#X connect 4 0 3 0;
#X connect 5 0 3 1;
#X connect 5 0 6 0;
#X restore 390 306 pd step;
#X obj 392 251 tgl 19 0 empty empty empty 0 -10 0 12 #fcfcfc #000000 #000000 0 1;
#X obj 540 471 scope;
#X obj 21 239;
#X connect 2 0 9 0;
#X connect 4 0 6 0;
#X connect 5 0 2 0;
#X connect 7 0 5 0;
#X connect 8 0 4 0;
#X connect 10 0 11 0;
#X connect 11 0 12 0;
#X connect 11 0 13 0;
#X connect 14 0 15 0;
#X connect 17 0 8 0;
#X connect 18 0 21 0;
#X connect 19 0 25 0;
#X connect 20 0 23 0;
#X connect 21 0 20 0;
#X connect 22 0 20 1;
#X connect 23 0 22 0;
#X connect 25 0 18 0;
#X connect 26 0 14 0;
#X connect 27 0 26 0;
