#N canvas 589 308 687 452 12;
#X obj 495 110 netreceive;
#X obj 100 148 netsend;
#X msg 55 47 connect 192.168.1.155 5678;
#X msg 302 101 hello wh;
#X obj 239 131 list;
#X obj 302 254 hsl 162 19 0 127 0 0 empty empty empty -2 -10 0 12 #fcfcfc #000000 #000000 0 1;
#X obj 205 322 hsl 162 19 0 127 0 0 empty empty empty -2 -10 0 12 #fcfcfc #000000 #000000 0 1;
#X msg 128 292 sl1 \$1;
#X msg 149 364 sl2 \$1;
#X msg 478 59 listen 5678;
#X obj 500 163 route sl1 sl2;
#X obj 612 121 tgl 19 0 empty empty empty 0 -10 0 12 #fcfcfc #000000 #000000 0 1;
#X connect 0 0 10 0;
#X connect 0 1 11 0;
#X connect 2 0 1 0;
#X connect 3 0 4 0;
#X connect 4 0 1 0;
#X connect 5 0 7 0;
#X connect 6 0 8 0;
#X connect 7 0 4 0;
#X connect 8 0 4 0;
#X connect 9 0 0 0;
