#N canvas 800 106 495 627 12;
#X obj 70 182 osc~ 100;
#X obj 128 383 scope;
#X obj 69 248 *~ 0.1;
#X obj 247 114 step, f 9;
#X obj 204 70 tgl 19 0 empty empty empty 0 -10 0 12 #fcfcfc #000000 #000000 0 1;
#X obj 229 149 bng 19 250 50 0 empty empty empty 0 -10 0 12 #fcfcfc #000000 #000000;
#X obj 221 179 tgl 19 0 empty empty empty 0 -10 0 12 #fcfcfc #000000 #000000 0 1;
#X floatatom 179 212 5 0 0 0 - - - 0;
#X msg 244 65 360;
#X floatatom 312 133 5 0 0 0 - - - 0;
#X obj 311 250 phasor~;
#X obj 306 322 *~ 0.1;
#X obj 297 426 scope;
#X obj 231 249 * -1;
#X obj 261 305 + 1;
#X obj 68 319 dac~ 3;
#X obj 379 394 dac~ 4;
#X msg 80 136 200;
#X msg 326 208 100;
#X msg 41 96 0;
#X msg 295 177 0;
#X connect 0 0 2 0;
#X connect 2 0 1 0;
#X connect 2 0 15 0;
#X connect 3 0 5 0;
#X connect 3 0 9 0;
#X connect 4 0 3 0;
#X connect 5 0 6 0;
#X connect 6 0 7 0;
#X connect 7 0 2 1;
#X connect 7 0 13 0;
#X connect 8 0 3 1;
#X connect 10 0 11 0;
#X connect 11 0 12 0;
#X connect 11 0 16 0;
#X connect 13 0 14 0;
#X connect 14 0 11 1;
#X connect 17 0 0 0;
#X connect 18 0 10 0;
#X connect 19 0 0 0;
#X connect 20 0 10 0;
