#N canvas 1791 176 996 754 12;
#X obj 30 111 scope;
#X obj 61 35 sig~ 0.5;
#X obj 246 102 scope;
#X obj 246 29 osc~ 20;
#X obj 418 98 scope;
#X obj 419 5 osc~ 20;
#X obj 444 567 scope;
#X obj 243 380 phasor~ 20;
#X obj 390 482 -~ 1;
#X obj 470 405 *~ 2;
#X obj 837 82 noise~;
#X obj 871 138 scope;
#X text 186 621 digital to analog converter;
#X obj 142 662 adc~;
#X text 188 657 analog to digital converter;
#X obj 73 625 dac~ 1 2 3 4 5;
#X obj 232 535 *~ 0.1;
#X text 331 526 sawtooth;
#X obj 208 311 metro 100;
#X obj 189 265 tgl 19 0 empty empty empty 0 -10 0 12 #fcfcfc #000000 #000000 0 1;
#X obj 211 351 random 4000;
#X floatatom 186 402 5 0 0 0 - - - 0;
#X obj 583 191 vsl 19 162 0 4000 0 0 empty empty empty 0 -9 0 12 #faff00 #000000 #000000 0 1;
#X floatatom 591 409 5 0 0 0 - - - 0;
#X obj 721 379 multiosc~;
#X obj 641 525 scope;
#X obj 845 512 dac~;
#X obj 824 430 *~ 0.1;
#X obj 742 314 sig~ 10;
#X obj 795 346 hradio 19 1 0 4 empty empty empty 0 -10 0 12 #fcfcfc #000000 #000000 0;
#X connect 1 0 0 0;
#X connect 3 0 2 0;
#X connect 5 0 4 0;
#X connect 7 0 9 0;
#X connect 8 0 6 0;
#X connect 8 0 16 0;
#X connect 9 0 8 0;
#X connect 10 0 11 0;
#X connect 10 0 27 0;
#X connect 16 0 15 0;
#X connect 18 0 20 0;
#X connect 19 0 18 0;
#X connect 20 0 7 0;
#X connect 20 0 21 0;
#X connect 22 0 20 1;
#X connect 22 0 23 0;
#X connect 27 0 25 0;
#X connect 28 0 24 0;
#X connect 29 0 24 1;
