#N canvas 0 65 1512 945 12;
#X declare -lib Gem;
#N canvas 0 65 942 917 gemwin 0;
#X obj 132 136 gemwin;
#X obj 67 89 outlet;
#X obj 67 10 inlet;
#X obj 67 41 route create;
#X msg 67 70 set destroy;
#X msg 167 68 set create;
#X msg 132 112 create \, 1;
#X msg 198 112 destroy;
#X obj 287 94 loadbang;
#X msg 294 121 reset \, lighting 0;
#X obj 205 24 loadbang;
#X connect 2 0 3 0;
#X connect 3 0 4 0;
#X connect 3 0 6 0;
#X connect 3 1 5 0;
#X connect 3 1 7 0;
#X connect 4 0 1 0;
#X connect 5 0 1 0;
#X connect 6 0 0 0;
#X connect 7 0 0 0;
#X connect 8 0 9 0;
#X connect 9 0 0 0;
#X connect 10 0 5 0;
#X restore 52 35 pd gemwin;
#X msg 158 55 create;
#X obj 10 66 declare -lib Gem;
#X text 21 8 Create/Destroy window:;
#X floatatom 25 176 6 0 0 0 - - - 0;
#X obj 61 175 bng 19 250 50 0 empty empty empty 0 -10 0 12 #fcfcfc #000000 #000000;
#X obj 331 50 lop~;
#X obj 428 52 lop~;
#X text 250 9 Music Player;
#X obj 330 31 blackhole-map, f 18;
#X obj 353 13 loadbang, f 10;
#X obj 49 284 snapshot~;
#X floatatom 53 303 9 0 0 0 - - - 0;
#X obj 22 240 bng 19 250 50 0 empty empty empty 0 -10 0 12 #fcfcfc #000000 #000000;
#X floatatom 120 346 5 0 0 0 - - - 0;
#X obj 634 66 r~ low_left, f 12;
#X obj 255 69 s~ low_left;
#X obj 333 69 s~ high_left;
#X obj 721 66 r~ low_right;
#X obj 716 18 r~ high_right;
#X obj 628 18 r~ high_left;
#X obj 634 108 dac~ 3;
#X obj 721 107 dac~ 4;
#X obj 421 69 s~ high_right;
#X obj 516 69 s~ low_right;
#X obj 51 228 r~ low_left;
#X obj 30 194 s engine;
#X msg 459 32 100, f 4;
#X obj 46 426 snapshot~;
#X floatatom 50 445 9 0 0 0 - - - 0;
#X obj 24 390 bng 19 250 50 0 empty empty empty 0 -10 0 12 #fcfcfc #000000 #000000;
#X floatatom 116 488 5 0 0 0 - - - 0;
#X obj 47 372 r~ high_left;
#X obj 43 527 fft~;
#X obj 36 569 snapshot~;
#X floatatom 37 590 5 0 0 0 - - - 0;
#X obj 21 528 bng 19 250 50 0 empty empty empty 0 -10 0 12 #fcfcfc #000000 #000000;
#X obj 82 247 r~ low_right;
#X obj 50 265 +~;
#X obj 155 285 scope;
#X obj 157 364 s low_amp;
#X obj 47 407 +~;
#X obj 155 425 scope;
#X obj 72 391 r~ high_right;
#X obj 49 325 s~ low;
#X obj 44 505 r~ low;
#X obj 78 545 /~ 20;
#X obj 44 659 fft~;
#X obj 151 696 scope;
#X obj 37 701 snapshot~;
#X floatatom 38 722 5 0 0 0 - - - 0;
#X obj 79 677 /~ 20;
#X obj 21 658 bng 19 250 50 0 empty empty empty 0 -10 0 12 #fcfcfc #000000 #000000;
#X obj 45 637 r~ high;
#X obj 46 475 s~ high;
#X obj 151 564 scope;
#X obj 154 506 s high_amp;
#X obj 116 464 * 1;
#X obj 120 322 * 1;
#X obj 634 89 *~ 2;
#X obj 722 87 *~ 2;
#X obj 628 38 dac~ 1;
#X obj 716 38 dac~ 2;
#X obj 363 51 *~ 1;
#X obj 395 50 *~ 1;
#X obj 25 156 circunference;
#X obj 25 136 tgl 19 0 empty empty empty 0 -10 0 12 #fcfcfc #000000 #000000 0 1;
#X msg 69 137 30;
#X msg 114 135 12.25;
#X obj 326 211 gemhead;
#X connect 0 0 1 0;
#X connect 1 0 0 0;
#X connect 4 0 26 0;
#X connect 4 0 13 0;
#X connect 6 0 16 0;
#X connect 7 0 24 0;
#X connect 9 1 6 0;
#X connect 9 1 63 0;
#X connect 9 2 7 0;
#X connect 9 2 64 0;
#X connect 10 0 27 0;
#X connect 11 0 12 0;
#X connect 12 0 58 0;
#X connect 13 0 11 0;
#X connect 13 0 30 0;
#X connect 14 0 40 0;
#X connect 15 0 59 0;
#X connect 18 0 60 0;
#X connect 19 0 62 0;
#X connect 20 0 61 0;
#X connect 25 0 38 0;
#X connect 27 0 6 1;
#X connect 27 0 7 1;
#X connect 27 0 63 1;
#X connect 27 0 64 1;
#X connect 28 0 29 0;
#X connect 29 0 57 0;
#X connect 30 0 28 0;
#X connect 30 0 36 0;
#X connect 31 0 56 0;
#X connect 32 0 41 0;
#X connect 33 0 34 0;
#X connect 33 0 46 0;
#X connect 34 0 35 0;
#X connect 36 0 34 0;
#X connect 36 0 52 0;
#X connect 37 0 38 1;
#X connect 38 0 11 0;
#X connect 38 0 39 0;
#X connect 38 0 44 0;
#X connect 41 0 28 0;
#X connect 41 0 42 0;
#X connect 41 0 54 0;
#X connect 43 0 41 1;
#X connect 45 0 33 0;
#X connect 46 0 55 0;
#X connect 47 0 49 0;
#X connect 47 0 51 0;
#X connect 49 0 50 0;
#X connect 51 0 48 0;
#X connect 52 0 49 0;
#X connect 53 0 47 0;
#X connect 57 0 31 0;
#X connect 58 0 14 0;
#X connect 59 0 21 0;
#X connect 60 0 22 0;
#X connect 63 0 17 0;
#X connect 64 0 23 0;
#X connect 65 0 4 0;
#X connect 66 0 65 0;
#X connect 67 0 65 1;
#X connect 68 0 65 2;
