#N canvas 84 147 1379 667 12;
#X obj 565 76 tgl 19 0 empty empty empty 0 -10 0 12 #fcfcfc #000000 #000000 0 1;
#X obj 635 94 step, f 9;
#X floatatom 716 138 5 0 0 0 - - - 0;
#X obj 638 174 tabread sounds;
#X floatatom 638 194 5 0 0 0 - - - 0;
#X obj 186 688 scope;
#X obj 771 156 bng 19 250 50 0 empty empty empty 0 -10 0 12 #fcfcfc #000000 #000000;
#X obj 818 152 bng 19 250 50 0 empty empty empty 0 -10 0 12 #fcfcfc #000000 #000000;
#X msg 551 234 0;
#N canvas 498 533 450 278 (subpatch) 0;
#X array sounds 8 float 1;
#A 0 664.483 1040 1040 732.758 596.208 459.657 459.657 357.232;
#X coords 0 5000 7 50 199 145 1 0 0;
#X restore 351 26 graph;
#X obj 628 367 *~ 0.5;
#X obj 616 15 loadbang;
#X obj 597 249 osc~;
#X obj 125 255 mtof;
#X floatatom 126 288 8 0 0 0 - - - 0;
#X obj 126 356 line 3;
#X obj 128 553 osc~;
#X obj 128 669 *~ 0.5;
#X msg 73 531 0;
#X obj 210 384 noise~;
#X obj 129 525 +~;
#X obj 210 483 *~;
#X floatatom 428 434 5 0 0 0 - - - 0;
#X obj 208 413 lop~ 100;
#X obj 419 394 * 0.5;
#X obj 214 445 +~, f 8;
#X obj 277 392 r~ feedback;
#X obj 150 589 s~ feedback;
#X obj 289 423 *~ -1;
#X obj 299 477 hsl 162 19 0 100 0 0 empty empty empty -2 -10 0 12 #fcfcfc #000000 #000000 0 1;
#X obj 280 512 * 0.01;
#X floatatom 321 534 5 0 0 0 - - - 0;
#X obj 187 531 *~;
#X obj 843 267 scope;
#X msg 825 190 0;
#X obj 126 198 hsl 162 19 0 127 0 0 empty empty empty -2 -10 0 12 #fcfcfc #000000 #000000 0 1;
#X floatatom 123 228 5 0 0 0 - - - 0;
#X obj 251 616 hsl 162 19 0 100 0 0 empty empty empty -2 -10 0 12 #fcfcfc #000000 #000000 0 1;
#X obj 218 646 * 0.01;
#X obj 247 571 loadbang;
#X msg 245 594 0;
#N canvas 437 303 755 513 minilab 0;
#X obj 144 162 notein;
#X floatatom 144 186 5 0 0 0 - - - 0;
#X obj 92 9 midiin;
#X floatatom 204 58 5 0 0 0 - - - 0;
#X obj 36 115 *;
#X obj 154 77 sel 0;
#X msg 113 132 1;
#X obj 169 109 bng 19 250 50 0 empty empty empty 0 -10 0 12 #fcfcfc #000000 #000000;
#X floatatom 36 139 5 0 0 0 - - - 0;
#X msg 82 78 0;
#X obj 136 56 bng 19 250 50 0 empty empty empty 0 -10 0 12 #fcfcfc #000000 #000000;
#X connect 0 0 1 0;
#X connect 2 0 3 0;
#X connect 3 0 5 0;
#X connect 4 0 8 0;
#X connect 5 0 10 0;
#X connect 5 1 7 0;
#X connect 6 0 4 1;
#X connect 7 0 6 0;
#X connect 9 0 4 1;
#X connect 10 0 9 0;
#X restore 455 300 pd minilab;
#X obj 659 304 hsl 162 19 0 100 0 0 empty empty empty -2 -10 0 12 #fcfcfc #000000 #000000 0 1;
#X obj 656 335 * 0.01;
#X obj 619 291 +~;
#X obj 770 118 sel 0 4, f 14;
#X obj 762 246 osc~;
#X msg 709 228 30;
#X msg 761 40 0;
#X msg 775 189 50;
#X obj 1103 29 tgl 19 0 empty empty empty 0 -10 0 12 #fcfcfc #000000 #000000 0 1;
#X obj 1237 448 scope;
#X obj 1228 379 *~;
#X obj 1076 376 *~;
#X obj 1013 446 scope;
#X obj 1600 337 PI;
#X floatatom 1600 361 5 0 0 0 - - - 0;
#X floatatom 1199 182 5 0 0 0 - - - 0;
#X obj 1199 152 abs;
#X obj 1142 154 abs;
#X floatatom 1141 184 5 0 0 0 - - - 0;
#X obj 629 407 s~ sig;
#X obj 1141 231 * -1;
#X obj 1200 232 * -1;
#X floatatom 1141 255 5 0 0 0 - - - 0;
#X floatatom 1200 256 5 0 0 0 - - - 0;
#X obj 1141 207 log 100;
#X obj 1200 208 log 100;
#X floatatom 1244 336 13 0 0 0 - - - 0;
#X obj 1039 285 max-value;
#X obj 1242 289 max-value;
#X msg 1114 285 1;
#X msg 1309 290 1;
#X floatatom 121 94 5 0 0 0 - - - 0;
#X obj 121 150 * 40;
#X obj 122 174 + 10;
#X obj 1062 90 sel 0;
#X obj 1065 118 bng 19 250 50 0 empty empty empty 0 -10 0 12 #fcfcfc #000000 #000000;
#X msg 1064 201 1;
#X msg 125 320 \$1 100;
#X obj 62 70 circunference;
#X obj 39 70 tgl 19 0 empty empty empty 0 -10 0 12 #fcfcfc #000000 #000000 0 1;
#X floatatom 62 94 5 0 0 0 - - - 0;
#X obj 120 120 abs;
#X obj 1118 90 circunference;
#X floatatom 1118 114 5 0 0 0 - - - 0;
#X msg 675 53 8;
#X msg 1296 180 100;
#X obj 118 716 s~ wow;
#X obj 597 583 r~ sig;
#X obj 682 580 r~ wow;
#X obj 1146 351 r~ add;
#X obj 656 743 s~ add;
#X obj 515 690 scope;
#X obj 655 670 *~ 0.5;
#X obj 746 633 hsl 162 19 0 100 0 0 empty empty empty -2 -10 0 12 #fcfcfc #000000 #000000 0 1;
#X obj 742 658 * 0.01;
#X floatatom 742 682 5 0 0 0 - - - 0;
#X obj 1150 455 dac~;
#X floatatom 218 670 5 0 0 0 - - - 0;
#X floatatom 1040 333 12 0 0 0 - - - 0;
#X obj 1040 309 min-value;
#X obj 1243 313 min-value;
#X msg 181 133 35;
#X obj 647 627 *~;
#X msg 1115 309 0.1;
#X msg 1310 313 0.1;
#X msg 173 160 20, f 4;
#X msg 1175 53 100;
#X msg 720 53 1;
#X msg 185 101 40;
#X msg 153 37 1;
#X msg 619 56 400, f 6;
#X msg 105 38 100;
#X msg 1143 32 2;
#X connect 0 0 1 0;
#X connect 0 0 12 0;
#X connect 1 0 2 0;
#X connect 1 0 3 0;
#X connect 2 0 45 0;
#X connect 3 0 4 0;
#X connect 3 0 12 0;
#X connect 6 0 49 0;
#X connect 7 0 34 0;
#X connect 8 0 12 0;
#X connect 10 0 61 0;
#X connect 11 0 112 0;
#X connect 11 0 86 0;
#X connect 11 0 48 0;
#X connect 12 0 44 0;
#X connect 13 0 14 0;
#X connect 14 0 79 0;
#X connect 15 0 20 0;
#X connect 15 0 24 0;
#X connect 16 0 17 0;
#X connect 16 0 27 0;
#X connect 17 0 5 0;
#X connect 17 0 88 0;
#X connect 18 0 16 0;
#X connect 19 0 23 0;
#X connect 20 0 16 0;
#X connect 21 0 32 0;
#X connect 23 0 25 0;
#X connect 24 0 21 1;
#X connect 24 0 22 0;
#X connect 25 0 21 0;
#X connect 26 0 28 0;
#X connect 28 0 25 1;
#X connect 29 0 30 0;
#X connect 30 0 31 0;
#X connect 30 0 32 1;
#X connect 32 0 20 1;
#X connect 34 0 46 0;
#X connect 35 0 36 0;
#X connect 36 0 13 0;
#X connect 37 0 38 0;
#X connect 38 0 17 1;
#X connect 38 0 99 0;
#X connect 39 0 40 0;
#X connect 40 0 37 0;
#X connect 42 0 43 0;
#X connect 43 0 10 1;
#X connect 44 0 10 0;
#X connect 45 0 6 0;
#X connect 45 1 7 0;
#X connect 46 0 33 0;
#X connect 46 0 44 1;
#X connect 47 0 46 0;
#X connect 48 0 46 0;
#X connect 49 0 46 0;
#X connect 50 0 76 0;
#X connect 50 0 84 0;
#X connect 52 0 51 0;
#X connect 52 0 98 1;
#X connect 53 0 54 0;
#X connect 53 0 98 0;
#X connect 57 0 67 0;
#X connect 58 0 57 0;
#X connect 59 0 60 0;
#X connect 60 0 66 0;
#X connect 62 0 64 0;
#X connect 63 0 65 0;
#X connect 64 0 69 0;
#X connect 65 0 70 0;
#X connect 66 0 62 0;
#X connect 67 0 63 0;
#X connect 68 0 52 1;
#X connect 69 0 101 0;
#X connect 70 0 102 0;
#X connect 71 0 69 1;
#X connect 72 0 70 1;
#X connect 73 0 83 0;
#X connect 74 0 75 0;
#X connect 75 0 35 0;
#X connect 76 0 77 0;
#X connect 77 0 78 0;
#X connect 78 0 69 0;
#X connect 78 0 70 0;
#X connect 79 0 15 0;
#X connect 80 0 82 0;
#X connect 80 2 73 0;
#X connect 81 0 80 0;
#X connect 83 0 74 0;
#X connect 84 0 85 0;
#X connect 84 2 59 0;
#X connect 84 3 58 0;
#X connect 86 0 1 2;
#X connect 87 0 66 1;
#X connect 87 0 67 1;
#X connect 89 0 104 0;
#X connect 90 0 104 1;
#X connect 91 0 53 0;
#X connect 91 0 52 0;
#X connect 94 0 93 0;
#X connect 94 0 92 0;
#X connect 95 0 96 0;
#X connect 96 0 94 1;
#X connect 96 0 97 0;
#X connect 100 0 53 1;
#X connect 101 0 100 0;
#X connect 102 0 68 0;
#X connect 103 0 74 1;
#X connect 104 0 94 0;
#X connect 105 0 101 1;
#X connect 106 0 102 1;
#X connect 107 0 75 1;
#X connect 108 0 84 1;
#X connect 109 0 1 3;
#X connect 110 0 74 1;
#X connect 111 0 80 2;
#X connect 112 0 1 1;
#X connect 113 0 80 1;
#X connect 114 0 84 1;
