#N canvas 91 44 1383 916 12;
#X obj 345 743 *~ 0.5;
#X obj 462 751 *~ 0.5;
#X obj 212 768 scope;
#X obj 542 779 scope;
#X obj 522 577 *~;
#X obj 332 588 *~;
#X floatatom 521 414 13 0 0 0 - - - 0;
#X obj 272 326 sel 0;
#X obj 369 287 circunference;
#X floatatom 369 311 5 0 0 0 - - - 0;
#X floatatom 326 422 12 0 0 0 - - - 0;
#X text 1081 684 TIDAL INPUT;
#X obj 1083 705 adc~ 15 16;
#X obj 817 457 scope;
#X obj 1169 518 scope;
#X obj 1024 404 vsl 19 162 0 1 0 0 empty empty empty 0 -9 0 12 #fcfcfc #000000 #000000 0 1;
#X obj 935 552 *~;
#X obj 1101 546 *~;
#X obj 941 490 adc~ 3;
#X obj 1069 491 adc~ 4;
#X obj 873 595 s~ mini_l;
#X obj 1095 603 s~ mini_r;
#X obj 398 832 dac~ 1 2;
#X obj 421 561 +~;
#X obj 376 523 r~ tidal_r;
#X obj 470 527 r~ mini_r;
#X floatatom 1024 575 5 0 0 0 - - - 0;
#X obj 1073 747 s~ tidal_l;
#X obj 1167 747 s~ tidal_r;
#X obj 145 514 r~ tidal_l;
#X obj 190 552 +~;
#X obj 244 516 r~ mini_l;
#X text 1076 426 Minilab Input;
#X obj 193 623 scope;
#X obj 584 643 scope;
#X floatatom 402 630 6 0 0 0 - - - 0;
#X obj 281 441 sig~;
#X obj 37 476 scope;
#X floatatom 888 749 5 0 0 0 - - - 0;
#X floatatom 931 748 5 0 0 0 - - - 0;
#X obj 902 702 ctlin;
#X floatatom 947 717 5 0 0 0 - - - 0;
#X msg 499 239 \$1;
#X obj 525 239 bng 19 250 50 0 empty empty empty 0 -10 0 12 #fcfcfc #000000 #000000;
#X obj 1129 478 s enter;
#X floatatom 443 411 5 0 0 0 - - - 0;
#X obj 470 487 hsl 50 19 -1 1 0 0 empty empty ojo -2 -10 0 12 #00ff04 #faff00 #ffffff 0 1;
#X obj 257 460 +~;
#X obj 229 439 sig~ -1;
#X obj 630 498 scope;
#X obj 567 478 +~;
#X obj 539 457 sig~;
#X obj 592 458 sig~ -1;
#X obj 319 270 tgl 19 0 empty empty empty 0 -10 0 12 #fcfcfc #000000 #000000 0 1;
#X obj 1128 453 ml-enter;
#N canvas 108 101 816 536 pan_log 1;
#X floatatom 460 70 5 0 0 0 - - - 0;
#X obj 460 40 abs;
#X obj 403 42 abs;
#X floatatom 402 72 5 0 0 0 - - - 0;
#X obj 402 119 * -1;
#X obj 461 120 * -1;
#X floatatom 402 143 5 0 0 0 - - - 0;
#X floatatom 461 144 5 0 0 0 - - - 0;
#X obj 402 95 log 100;
#X obj 461 96 log 100;
#X floatatom 505 224 13 0 0 0 - - - 0;
#X obj 300 173 max-value;
#X obj 503 177 max-value;
#X msg 375 173 1;
#X msg 570 178 1;
#X msg 273 130 1;
#X floatatom 301 221 12 0 0 0 - - - 0;
#X obj 301 197 min-value;
#X obj 504 201 min-value;
#X msg 376 197 0.1;
#X msg 571 201 0.1;
#X obj 268 240 sig~;
#X obj 154 293 scope;
#X obj 430 186 -;
#X floatatom 430 210 5 0 0 0 - - - 0;
#X obj 424 232 hsl 50 19 -1 1 0 0 empty empty empty -2 -10 0 12 #fcfcfc #000000 #000000 0 1;
#X obj 244 259 +~;
#X obj 617 297 scope;
#X obj 554 277 +~;
#X obj 526 256 sig~;
#X obj 274 107 loadbang;
#X obj 307 344 outlet left;
#X obj 501 353 outlet right;
#X obj 375 290 outlet center;
#X obj 355 10 inlet left;
#X obj 462 10 inlet right;
#X obj 574 33 inlet log;
#X msg 555 68 \$1;
#X obj 197 237 sig~ -1;
#X obj 579 257 sig~ -1;
#X floatatom 316 313 5 0 0 0 - - - 0;
#X obj 318 272 * 2;
#X obj 495 289 * 2;
#X connect 0 0 9 0;
#X connect 1 0 0 0;
#X connect 2 0 3 0;
#X connect 3 0 8 0;
#X connect 4 0 6 0;
#X connect 5 0 7 0;
#X connect 6 0 11 0;
#X connect 6 0 23 0;
#X connect 7 0 12 0;
#X connect 7 0 23 1;
#X connect 8 0 4 0;
#X connect 9 0 5 0;
#X connect 10 0 29 0;
#X connect 10 0 42 0;
#X connect 11 0 17 0;
#X connect 12 0 18 0;
#X connect 13 0 11 1;
#X connect 14 0 12 1;
#X connect 15 0 11 0;
#X connect 15 0 12 0;
#X connect 16 0 21 0;
#X connect 16 0 41 0;
#X connect 17 0 16 0;
#X connect 18 0 10 0;
#X connect 19 0 17 1;
#X connect 20 0 18 1;
#X connect 21 0 26 0;
#X connect 23 0 24 0;
#X connect 24 0 25 0;
#X connect 25 0 33 0;
#X connect 26 0 22 0;
#X connect 28 0 27 0;
#X connect 29 0 28 1;
#X connect 30 0 15 0;
#X connect 34 0 2 0;
#X connect 35 0 1 0;
#X connect 36 0 37 0;
#X connect 37 0 8 1;
#X connect 37 0 9 1;
#X connect 38 0 26 1;
#X connect 39 0 28 0;
#X connect 40 0 31 0;
#X connect 41 0 40 0;
#X connect 42 0 32 0;
#X restore 408 377 pd pan_log;
#X floatatom 411 341 5 0 0 0 - - - 0;
#X floatatom 460 340 5 0 0 0 - - - 0;
#X msg 278 377 1;
#X floatatom 116 21 5 0 0 0 - - - 0;
#X obj 116 1 ctlin;
#X obj 163 177 spigot;
#X obj 114 40 > 0;
#X obj 193 134 int;
#X msg 176 61 1;
#X msg 227 60 0;
#X floatatom 202 156 5 0 0 0 - - - 0;
#X obj 159 39 bng 19 250 50 0 empty empty empty 0 -10 0 12 #fcfcfc #000000 #000000;
#X obj 206 38 bng 19 250 50 0 empty empty empty 0 -10 0 12 #fcfcfc #000000 #000000;
#X floatatom 198 85 5 0 0 0 - - - 0;
#X obj 164 197 bng 19 250 50 0 empty empty empty 0 -10 0 12 #fcfcfc #000000 #000000;
#X obj 334 62 step, f 8;
#X obj 287 143 int;
#X obj 283 10 t b b;
#X msg 275 72 0;
#X obj 392 34 bng 19 250 50 0 empty empty empty 0 -10 0 12 #fcfcfc #000000 #000000;
#X obj 301 73 bng 19 250 50 0 empty empty empty 0 -10 0 12 #fcfcfc #000000 #000000;
#X floatatom 285 168 5 0 0 0 - - - 0;
#X obj 364 125 bng 19 250 50 0 empty empty empty 0 -10 0 12 #fcfcfc #000000 #000000;
#X obj 338 126 + 1;
#X msg 367 35 5;
#X obj 284 195 sel 10;
#X msg 329 214 0;
#X obj 158 18 sel 86;
#X obj 84 458 hsl 50 19 -1 1 0 0 empty empty ojo -2 -10 0 12 #00ff04 #faff00 #ffffff 0 1;
#X obj 680 481 hsl 50 19 -1 1 0 0 empty empty ojo -2 -10 0 12 #00ff04 #faff00 #ffffff 0 1;
#X obj 402 609 hsl 50 19 0 1 0 0 empty empty volumen -2 -10 0 12 #ff0400 #000000 #000000 0 1;
#X floatatom 564 239 5 0 0 0 - - - 0;
#X msg 463 202 18;
#X obj 463 221 ml-scroller 18;
#X floatatom 461 239 5 0 0 0 - - - 0;
#X obj 488 202 loadbang;
#X msg 576 326 \$1;
#X obj 602 326 bng 19 250 50 0 empty empty empty 0 -10 0 12 #fcfcfc #000000 #000000;
#X floatatom 641 326 5 0 0 0 - - - 0;
#X floatatom 538 326 5 0 0 0 - - - 0;
#X obj 565 289 loadbang;
#X msg 513 353 \$1;
#X msg 540 289 74;
#X obj 540 308 ml-scroller 74;
#X msg 410 222 1000;
#X obj 815 122 circunference;
#X obj 803 83 tgl 19 0 empty empty empty 0 -10 0 12 #fcfcfc #000000 #000000 0 1;
#X floatatom 896 164 5 0 0 0 - - - 0;
#X obj 735 219 scope;
#X obj 823 173 sig~;
#X msg 926 91 1;
#X msg 857 88 0.005;
#X obj 1055 207 scope;
#X obj 909 246 scope;
#X obj 911 210 *~;
#X obj 813 379 dac~ 15 16;
#X obj 958 178 osc~ 20;
#X msg 1001 126 1000;
#X msg 546 385 10000, f 7;
#X msg 374 222 5;
#X connect 0 0 2 0;
#X connect 0 0 22 0;
#X connect 1 0 3 0;
#X connect 1 0 22 1;
#X connect 4 0 1 0;
#X connect 4 0 34 0;
#X connect 5 0 0 0;
#X connect 6 0 51 0;
#X connect 6 0 85 0;
#X connect 6 0 4 1;
#X connect 7 0 58 0;
#X connect 8 0 9 0;
#X connect 8 2 56 0;
#X connect 8 3 57 0;
#X connect 10 0 36 0;
#X connect 10 0 84 0;
#X connect 10 0 5 1;
#X connect 12 0 27 0;
#X connect 12 1 28 0;
#X connect 15 0 16 1;
#X connect 15 0 17 1;
#X connect 15 0 26 0;
#X connect 16 0 20 0;
#X connect 17 0 21 0;
#X connect 18 0 16 0;
#X connect 18 0 13 0;
#X connect 19 0 17 0;
#X connect 19 0 14 0;
#X connect 23 0 4 0;
#X connect 24 0 23 0;
#X connect 25 0 23 1;
#X connect 29 0 30 0;
#X connect 30 0 5 0;
#X connect 30 0 33 0;
#X connect 31 0 30 1;
#X connect 36 0 47 0;
#X connect 40 0 38 0;
#X connect 40 1 39 0;
#X connect 40 2 41 0;
#X connect 42 0 8 1;
#X connect 42 0 43 0;
#X connect 45 0 46 0;
#X connect 47 0 37 0;
#X connect 48 0 47 1;
#X connect 50 0 49 0;
#X connect 51 0 50 1;
#X connect 52 0 50 0;
#X connect 53 0 7 0;
#X connect 53 0 8 0;
#X connect 54 0 44 0;
#X connect 55 0 10 0;
#X connect 55 1 45 0;
#X connect 55 2 6 0;
#X connect 56 0 55 0;
#X connect 57 0 55 1;
#X connect 58 0 5 1;
#X connect 58 0 4 1;
#X connect 59 0 62 0;
#X connect 60 0 59 0;
#X connect 60 1 83 0;
#X connect 61 0 70 0;
#X connect 62 0 61 0;
#X connect 63 0 66 0;
#X connect 64 0 69 0;
#X connect 65 0 69 0;
#X connect 66 0 61 1;
#X connect 67 0 63 0;
#X connect 67 0 64 0;
#X connect 67 0 73 0;
#X connect 68 0 65 0;
#X connect 68 0 63 0;
#X connect 69 0 63 1;
#X connect 70 0 53 0;
#X connect 71 0 78 0;
#X connect 72 0 77 0;
#X connect 72 0 79 0;
#X connect 73 0 76 0;
#X connect 73 1 75 0;
#X connect 74 0 72 1;
#X connect 74 0 72 0;
#X connect 75 0 71 0;
#X connect 76 0 74 0;
#X connect 77 0 81 0;
#X connect 78 0 79 1;
#X connect 78 0 72 0;
#X connect 79 0 72 1;
#X connect 80 0 71 2;
#X connect 80 0 81 1;
#X connect 81 0 82 0;
#X connect 82 0 71 0;
#X connect 82 0 66 0;
#X connect 83 0 67 0;
#X connect 83 1 68 0;
#X connect 86 0 0 1;
#X connect 86 0 35 0;
#X connect 86 0 1 0;
#X connect 88 0 89 0;
#X connect 89 0 42 0;
#X connect 89 0 90 0;
#X connect 89 1 87 0;
#X connect 91 0 88 0;
#X connect 92 0 93 0;
#X connect 95 0 97 0;
#X connect 96 0 98 0;
#X connect 97 0 55 2;
#X connect 98 0 99 0;
#X connect 99 0 92 0;
#X connect 99 0 95 0;
#X connect 99 1 94 0;
#X connect 100 0 8 1;
#X connect 101 2 103 0;
#X connect 102 0 101 0;
#X connect 103 0 105 0;
#X connect 105 0 104 0;
#X connect 105 0 110 0;
#X connect 106 0 101 2;
#X connect 107 0 101 1;
#X connect 110 0 109 0;
#X connect 112 0 108 0;
#X connect 112 0 110 1;
#X connect 113 0 112 0;
#X connect 114 0 55 2;
#X connect 115 0 8 1;
