#N canvas 445 259 825 592 12;
#X obj 115 94 scope;
#X obj 115 308 dac~ 3;
#X obj 118 194 hsl 162 19 0 1.2 0 0 empty empty empty -2 -10 0 12 #fcfcfc #000000 #000000 0 1;
#X floatatom 278 214 5 0 0 0 - - - 0;
#X obj 113 55 blackhole-map;
#X obj 186 307 dac~ 4;
#X text 155 28 Mic;
#X obj 114 34 tgl 19 0 empty empty empty 0 -10 0 12 #fcfcfc #000000 #000000 0 1;
#X obj 114 213 *~ 1;
#X obj 376 75 fft~;
#X obj 411 93 scope;
#X connect 2 0 3 0;
#X connect 2 0 8 1;
#X connect 4 0 0 0;
#X connect 4 0 8 0;
#X connect 4 0 9 0;
#X connect 7 0 4 0;
#X connect 8 0 1 0;
#X connect 8 0 5 0;
#X connect 9 1 10 0;
