#N canvas 16 144 1010 738 12;
#X floatatom 119 100 5 0 0 0 - - - 0;
#X obj 78 151 scope;
#X obj 290 88 line;
#X obj 11 79 tgl 19 0 empty empty empty 0 -10 0 12 #ff0400 #000000 #000000 0 1;
#X obj 33 106 send step;
#X obj 199 37 receive step;
#N canvas 411 449 450 278 (subpatch) 0;
#X array freqs 32 float 5;
#A 0 -242.857 -171.428 -114.284 -28.5687 0.00311279 128.576 128.576 257.149 328.579 385.722 457.152 514.295 557.153 600.01 628.582 671.44 728.583 742.869 785.727 828.585 857.156 442.866 185.72 42.8608 -71.4263 -214.285 -314.286 -342.858 528.584 514.298 371.439 771.429;
#X coords 0 -1000 31 1000 198 140 1 0 0;
#X restore 249 156 graph;
#X obj 199 56 tabread freqs;
#X floatatom 199 77 7 0 0 0 - - - 0;
#X obj 437 113 tgl 19 0 empty empty empty 0 -10 0 12 #ff8300 #000000 #000000 0 1;
#X obj 252 114 expr if($f2 > 0 \, $f1 \, 0);
#X obj 43 521 scope;
#X obj 259 465 line;
#N canvas 411 449 450 278 (subpatch) 0;
#X array freqs2 32 float 5;
#A 0 -285.745 -271.428 -228.57 -157.139 -85.7084 14.2945 100.011 142.87 257.159 271.445 400.02 500.023 600.026 671.457 757.173 814.318 600.026 442.878 228.596 200.023 142.879 85.7344 14.3037 -57.127 -85.6992 -71.4131 28.5898 200.023 571.463 685.752 842.899 842.899;
#X coords 0 -1000 31 1000 200 140 1 0 0;
#X restore 210 540 graph;
#X floatatom 140 415 5 0 0 0 - - - 0;
#X obj 412 485 tgl 19 0 empty empty empty 0 -10 0 12 #ff8300 #000000 #000000 0 1;
#X obj 238 484 expr if($f2 > 0 \, $f1 \, 0);
#X obj 137 397 tabread freqs2;
#X obj 199 102 osc~;
#X obj 31 80 step, f 11;
#X obj 231 356 tgl 19 0 empty empty empty 0 -10 0 12 #faff00 #000000 #000000 0 1;
#X obj 259 376 step, f 9;
#X floatatom 318 395 5 0 0 0 - - - 0;
#X msg 315 329 32;
#X msg 47 0 60;
#X obj 44 22 / 125;
#X obj 42 45 * 1000;
#X obj 139 455 osc~;
#X floatatom 272 509 5 0 0 0 - - - 0;
#X msg 258 442 1 \, 0 128;
#X obj 199 133 *~;
#X floatatom 199 18 5 0 0 0 - - - 0;
#X obj 140 435 * 1;
#X obj 141 503 *~;
#X msg 355 371 1;
#X floatatom 318 135 5 0 0 0 - - - 0;
#X floatatom 56 62 5 0 0 0 - - - 0;
#X floatatom 181 672 5 0 0 0 - - - 0;
#X msg 109 37 32;
#X msg 11 45 240;
#X obj 529 146 adc~ 13;
#X obj 758 144 adc~ 14;
#X obj 591 293 scope;
#X obj 234 311 dac~ 7;
#X obj 165 311 dac~ 8;
#X msg 264 342 480;
#X obj 142 622 dac~ 8;
#X obj 155 587 dac~ 7;
#X obj 531 243 dac~ 7;
#X obj 762 244 dac~ 8;
#X obj 572 190 *~ 0.6;
#X obj 685 13 vsl 19 162 0 1.5 0 0 empty empty empty 0 -9 0 12 #fcfcfc #000000 #000000 0 1;
#X obj 780 193 *~ 0.6;
#X obj 835 279 scope;
#X floatatom 685 183 5 0 0 0 - - - 0;
#X msg 144 62 8;
#X msg 322 59 0.8 \, 0 256;
#X obj 668 432 step;
#X obj 647 413 tgl 19 0 empty empty empty 0 -10 0 12 #fcfcfc #000000 #000000 0 1;
#X obj 708 590 scope;
#X obj 582 546 *~ 0.5;
#X obj 583 615 dac~ 7;
#X obj 592 505 osc~;
#X msg 611 471 200;
#X obj 667 454 bng 19 250 50 0 empty empty empty 0 -10 0 12 #fcfcfc #000000 #000000;
#X floatatom 686 454 5 0 0 0 - - - 0;
#X connect 2 0 10 0;
#X connect 3 0 19 0;
#X connect 5 0 7 0;
#X connect 5 0 56 0;
#X connect 5 0 31 0;
#X connect 7 0 8 0;
#X connect 8 0 18 0;
#X connect 9 0 10 1;
#X connect 10 0 30 1;
#X connect 10 0 35 0;
#X connect 12 0 16 0;
#X connect 14 0 32 0;
#X connect 15 0 16 1;
#X connect 16 0 28 0;
#X connect 16 0 33 1;
#X connect 17 0 14 0;
#X connect 18 0 30 0;
#X connect 19 0 4 0;
#X connect 19 0 0 0;
#X connect 20 0 21 0;
#X connect 21 0 22 0;
#X connect 21 0 29 0;
#X connect 21 0 17 0;
#X connect 23 0 21 2;
#X connect 24 0 25 0;
#X connect 25 0 26 0;
#X connect 26 0 19 1;
#X connect 26 0 36 0;
#X connect 27 0 33 0;
#X connect 29 0 12 0;
#X connect 30 0 1 0;
#X connect 30 0 43 0;
#X connect 30 0 44 0;
#X connect 32 0 27 0;
#X connect 33 0 11 0;
#X connect 33 0 46 0;
#X connect 33 0 47 0;
#X connect 34 0 21 3;
#X connect 38 0 19 2;
#X connect 39 0 19 1;
#X connect 40 0 50 0;
#X connect 41 0 52 0;
#X connect 45 0 21 1;
#X connect 50 0 48 0;
#X connect 50 0 42 0;
#X connect 51 0 50 1;
#X connect 51 0 52 1;
#X connect 51 0 54 0;
#X connect 52 0 49 0;
#X connect 52 0 53 0;
#X connect 55 0 19 3;
#X connect 56 0 2 0;
#X connect 57 0 63 0;
#X connect 57 0 64 0;
#X connect 57 0 65 0;
#X connect 58 0 57 0;
#X connect 62 0 60 0;
#X connect 63 0 62 0;
#X coords 0 0 1 1 85 60 0;
