#N canvas 657 413 706 368 12;
#X obj 214 69 inlet init;
#X obj 245 236 outlet;
#X obj 215 117 metro 100;
#X obj 446 138 inlet module;
#X floatatom 518 156 5 0 0 0 - - - 0;
#X floatatom 398 118 5 0 0 0 - - - 0;
#X floatatom 272 87 5 0 0 0 - - - 0;
#X msg 267 151 16;
#X obj 216 199 %;
#X obj 267 182 expr if($f2 > 0 \, $f2 \, $f1);
#X floatatom 436 201 5 0 0 0 - - - 0;
#X floatatom 245 218 5 0 0 0 - - - 0;
#X obj 325 99 inlet freq;
#X text 293 151 Default is 16 steps!;
#X obj 133 200 + 1;
#X msg 156 136 1;
#X obj 534 267 inlet stepsize;
#X floatatom 631 286 5 0 0 0 - - - 0;
#X floatatom 209 283 5 0 0 0 - - - 0;
#X obj 30 166 expr if($f2 > 0 \, $f2 \, $f1);
#X text 245 255 [0> Steps;
#X text 242 51 >0]Enable;
#X text 332 81 >1]Frequency;
#X text 489 121 >3]Module;
#X text 570 249 >4]Step Size;
#X msg 77 86 tempo 120 permin;
#X connect 0 0 2 0;
#X connect 0 0 6 0;
#X connect 2 0 7 0;
#X connect 2 0 15 0;
#X connect 3 0 4 0;
#X connect 3 0 9 1;
#X connect 7 0 9 0;
#X connect 8 0 1 0;
#X connect 8 0 11 0;
#X connect 8 0 14 1;
#X connect 9 0 8 1;
#X connect 9 0 10 0;
#X connect 12 0 2 1;
#X connect 12 0 5 0;
#X connect 14 0 8 0;
#X connect 15 0 19 0;
#X connect 16 0 17 0;
#X connect 16 0 18 0;
#X connect 18 0 19 1;
#X connect 19 0 14 0;
#X connect 25 0 2 0;
